<svg xmlns="http://www.w3.org/2000/svg" width="2535" height="2535" fill="none"><g clip-path="url(#a)"><mask id="b" width="2347" height="2535" x="94" y="0" maskUnits="userSpaceOnUse" style="mask-type:luminance"><path fill="#fff" d="M94 0h2347v2535H94z"/></mask><g mask="url(#b)"><path fill="#FFE000" d="m2058.19 395.929 129.87 23.609 86.61 94.494 133.89 1027.088-44.63-53.65 44.63 440.39-172.16-130.6v439.78l-55.53-44.68 55.53 310.86-390.18-266.18-56.19 113.27-277.96-174.87v125.22l-464.19-321.7 196.55 258.08-848.924-705.44-57.078-121.52 18.136-34.19 641.74-827.418z"/><path fill="#35008C" fill-rule="evenodd" d="M2193.72 388.375a31.7 31.7 0 0 1 17.69 9.761l86.61 94.494a31.68 31.68 0 0 1 8.06 17.308l133.88 1027.082c1.82 13.98-5.81 27.48-18.73 33.12a31.5 31.5 0 0 1-16.85 2.37l35.69 352.16a31.6 31.6 0 0 1-3.41 17.79 31.6 31.6 0 0 1-12.6 13.02c-11 6.17-24.6 5.23-34.65-2.39l-121.34-92.05v376c0 12.19-7 23.3-17.99 28.57a31.75 31.75 0 0 1-23.68 1.49l41.18 230.55c1.09 6.14.35 12.47-2.13 18.19a31.75 31.75 0 0 1-11.84 13.97c-10.71 6.92-24.53 6.76-35.06-.43l-360.12-245.67-40.03 80.67a31.7 31.7 0 0 1-8.15 10.31 31.8 31.8 0 0 1-11.64 6.1c-4.26 1.2-8.73 1.49-13.12.86-4.38-.63-8.58-2.18-12.33-4.54l-229.42-144.33v67.88c0 11.79-6.54 22.59-16.98 28.06a31.76 31.76 0 0 1-16.65 3.56 31.63 31.63 0 0 1-16.09-5.59l-299.67-207.68 75.28 98.84c9.76 12.82 8.35 30.91-3.28 42.06-11.63 11.14-29.77 11.79-42.16 1.49l-848.927-705.44a31.74 31.74 0 0 1-8.426-10.89l-57.078-121.53a31.66 31.66 0 0 1 .689-28.31l18.136-34.18a31.7 31.7 0 0 1 2.952-4.57l641.74-827.42a31.67 31.67 0 0 1 20.516-11.939L2053.68 364.578c3.38-.487 6.81-.424 10.17.188zM1047.88 1978.96l464.19 321.7v-125.22l277.95 174.86 56.2-113.26 390.18 266.18-55.53-310.86 55.53 44.68v-439.78l172.16 130.6-44.63-440.39 44.63 53.65-133.89-1027.088-86.61-94.494-129.87-23.61L998.304 548.471l-641.74 827.419-18.137 34.19 57.079 121.52 848.924 705.44z" clip-rule="evenodd"/><path fill="#FFE000" d="m2180.87 419.03 7.19.507 86.61 94.495 133.89 1027.088-44.63-53.65 44.63 444.18-172.16-134.39v439.78l-55.53-44.68 55.53 310.86-390.18-266.18-56.19 113.26-277.96-174.86v125.22l-464.19-321.7 196.55 258.08-848.924-705.44-57.078-121.52 18.136-34.19 641.74-827.419z"/><path fill="#35008C" fill-rule="evenodd" d="M2179.67 408.012a11 11 0 0 1 1.98-.038l7.19.507c2.83.199 5.47 1.476 7.39 3.567l86.61 94.495a10.97 10.97 0 0 1 2.82 6.057l133.89 1027.08c.64 4.9-2.04 9.62-6.56 11.6-2.2.96-4.65 1.18-6.99.62-2.34-.55-4.43-1.85-5.97-3.69l-21.45-25.79 41.01 408.13c.44 4.41-1.79 8.67-5.68 10.81-1.9 1.05-4.07 1.52-6.24 1.35-2.16-.18-4.23-.98-5.94-2.32l-154.25-120.41v417.06c0 4.27-2.45 8.16-6.29 10-1.89.9-3.99 1.25-6.07 1.01-2.07-.24-4.04-1.06-5.67-2.37l-32.46-26.12 50.32 281.71c.79 4.39-1.14 8.83-4.89 11.25a11 11 0 0 1-6.16 1.78c-2.18-.03-4.31-.7-6.11-1.93l-379.66-258.99-50.53 101.85c-1.4 2.81-3.91 4.9-6.93 5.75s-6.25.38-8.91-1.29l-260.97-164.18v105.15c0 4.13-2.29 7.91-5.94 9.82-1.79.94-3.81 1.37-5.83 1.25-2.02-.13-3.97-.81-5.63-1.96l-406.6-281.79 154.1 202.35c3.42 4.48 2.92 10.82-1.15 14.72a11.09 11.09 0 0 1-7.28 3.07c-2.72.1-5.38-.81-7.47-2.55l-848.929-705.44a11.1 11.1 0 0 1-2.949-3.81l-57.079-121.53a11.08 11.08 0 0 1 .242-9.91l18.136-34.18c.298-.56.643-1.1 1.033-1.6l641.74-827.422a11.076 11.076 0 0 1 7.554-4.225zm1.42 22.148L1004.18 558.981 365.909 1381.93l-15.092 28.45 53.673 114.27 772.09 641.6-137.52-180.57c-1.6-2.1-2.39-4.7-2.24-7.34a11.078 11.078 0 0 1 17.38-8.49l446.78 309.64v-104.05c0-4.04 2.19-7.75 5.73-9.7 3.53-1.96 7.84-1.83 11.26.32l267.58 168.33 50.74-102.27c1.43-2.88 4.03-4.99 7.13-5.8s6.4-.24 9.05 1.56l368.37 251.31-50.88-284.88c-.39-2.22-.1-4.51.84-6.57a11.1 11.1 0 0 1 4.42-4.92c3.98-2.35 9-1.99 12.6.91l37.49 30.16v-416.63c0-4.24 2.42-8.11 6.23-9.97 3.8-1.85 8.34-1.38 11.68 1.23l151.71 118.44-42.03-418.38c-.49-4.85 2.25-9.45 6.74-11.33 4.5-1.89 9.69-.62 12.81 3.13l20.17 24.25-128.49-985.689-81.26-88.655z" clip-rule="evenodd"/><mask id="c" width="2071" height="2085" x="338" y="419" maskUnits="userSpaceOnUse" style="mask-type:alpha"><path fill="#FFE000" d="m2180.88 419.03 7.18.507 86.61 94.495 133.89 1027.088-44.63-53.65-15.94 491.49-111.59-181.7v439.78l-55.52-44.68 55.52 310.86-390.18-266.18-56.19 113.26-277.96-174.86v125.22l-464.18-321.7 196.54 258.08-848.922-705.44-57.078-121.52 18.136-34.19 641.74-827.419z"/></mask><g mask="url(#c)"><path fill="url(#d)" d="M403.114 1521.76c8.885 16.03 1.414 26.7-16.687 23.83-18.101-2.86-39.977-18.18-48.862-34.21s-1.414-26.7 16.687-23.83c18.101 2.86 39.978 18.18 48.862 34.21"/><path fill="url(#e)" d="M439.61 1421.64c8.884 16.03 1.413 26.7-16.688 23.83-18.101-2.86-39.977-18.18-48.862-34.21s-1.414-26.7 16.687-23.83 39.978 18.18 48.863 34.21"/><path fill="url(#f)" d="M503.96 1537.73c8.885 16.03 1.414 26.7-16.687 23.83-18.101-2.86-39.978-18.18-48.863-34.21s-1.413-26.7 16.688-23.83 39.977 18.18 48.862 34.21"/><path fill="url(#g)" d="M568.309 1653.82c8.885 16.03 1.414 26.7-16.687 23.84-18.101-2.87-39.978-18.19-48.862-34.22s-1.414-26.7 16.687-23.83 39.977 18.19 48.862 34.21"/><path fill="url(#h)" d="M421.362 1471.7c8.885 16.03 1.414 26.7-16.687 23.83-18.101-2.86-39.977-18.18-48.862-34.21s-1.414-26.7 16.687-23.83c18.101 2.86 39.977 18.18 48.862 34.21"/><path fill="url(#i)" d="M485.712 1587.79c8.885 16.03 1.414 26.7-16.687 23.83-18.101-2.86-39.977-18.18-48.862-34.21s-1.414-26.7 16.687-23.83 39.977 18.18 48.862 34.21"/><path fill="url(#j)" d="M540.455 1437.61c8.885 16.03 1.414 26.7-16.687 23.84-18.101-2.87-39.978-18.19-48.863-34.22s-1.413-26.7 16.688-23.83 39.977 18.19 48.862 34.21"/><path fill="url(#k)" d="M604.804 1553.71c8.885 16.02 1.414 26.69-16.687 23.83-18.101-2.87-39.977-18.19-48.862-34.22s-1.414-26.7 16.687-23.83 39.977 18.19 48.862 34.22"/><path fill="url(#l)" d="M669.155 1669.8c8.885 16.02 1.414 26.69-16.687 23.83-18.101-2.87-39.977-18.19-48.862-34.22-8.885-16.02-1.414-26.69 16.687-23.83 18.101 2.87 39.977 18.19 48.862 34.22"/><path fill="url(#m)" d="M733.505 1785.89c8.885 16.03 1.414 26.7-16.687 23.83s-39.977-18.19-48.862-34.22c-8.885-16.02-1.414-26.69 16.687-23.83 18.101 2.87 39.978 18.19 48.862 34.22"/><path fill="url(#n)" d="M522.206 1487.67c8.885 16.03 1.414 26.7-16.687 23.84-18.101-2.87-39.977-18.19-48.862-34.22s-1.414-26.7 16.687-23.83 39.977 18.18 48.862 34.21"/><path fill="url(#o)" d="M586.557 1603.76c8.884 16.03 1.413 26.7-16.688 23.84-18.101-2.87-39.977-18.19-48.862-34.22s-1.414-26.7 16.687-23.83 39.978 18.19 48.863 34.21"/><path fill="url(#p)" d="M650.907 1719.86c8.885 16.02 1.414 26.69-16.687 23.83-18.101-2.87-39.978-18.19-48.863-34.22s-1.413-26.7 16.687-23.83 39.978 18.19 48.863 34.22"/><path fill="url(#q)" d="M641.301 1453.59c8.885 16.03 1.414 26.7-16.687 23.83s-39.977-18.19-48.862-34.22c-8.885-16.02-1.414-26.69 16.687-23.83 18.101 2.87 39.977 18.19 48.862 34.22"/><path fill="url(#r)" d="M705.65 1569.68c8.885 16.03 1.414 26.7-16.687 23.83s-39.977-18.19-48.862-34.21c-8.885-16.03-1.414-26.7 16.687-23.84 18.101 2.87 39.977 18.19 48.862 34.22"/><path fill="url(#s)" d="M770.001 1685.77c8.884 16.03 1.413 26.7-16.688 23.83s-39.977-18.18-48.862-34.21-1.414-26.7 16.687-23.84c18.101 2.87 39.978 18.19 48.863 34.22"/><path fill="url(#t)" d="M834.351 1801.86c8.885 16.03 1.414 26.7-16.687 23.83s-39.978-18.18-48.863-34.21-1.413-26.7 16.687-23.83c18.101 2.86 39.978 18.18 48.863 34.21"/><path fill="url(#u)" d="M898.7 1917.95c8.885 16.03 1.414 26.7-16.687 23.83s-39.978-18.18-48.862-34.21-1.414-26.7 16.687-23.83c18.101 2.86 39.977 18.18 48.862 34.21"/><path fill="url(#v)" d="M623.052 1503.65c8.885 16.02 1.414 26.69-16.687 23.83-18.101-2.87-39.977-18.19-48.862-34.22-8.885-16.02-1.414-26.69 16.687-23.83 18.101 2.87 39.977 18.19 48.862 34.22"/><path fill="url(#w)" d="M687.402 1619.74c8.885 16.03 1.414 26.7-16.687 23.83s-39.978-18.19-48.863-34.22c-8.884-16.02-1.413-26.69 16.688-23.83 18.101 2.87 39.977 18.19 48.862 34.22"/><path fill="url(#x)" d="M751.753 1735.83c8.885 16.03 1.414 26.7-16.687 23.83s-39.977-18.19-48.862-34.21c-8.885-16.03-1.414-26.7 16.687-23.84 18.101 2.87 39.977 18.19 48.862 34.22"/><path fill="url(#y)" d="M816.102 1851.92c8.885 16.03 1.414 26.7-16.687 23.83s-39.977-18.18-48.862-34.21-1.414-26.7 16.687-23.84c18.101 2.87 39.977 18.19 48.862 34.22"/><path fill="url(#z)" d="M742.144 1469.56c8.885 16.03 1.414 26.7-16.687 23.83s-39.977-18.18-48.862-34.21-1.414-26.7 16.687-23.83c18.101 2.86 39.978 18.18 48.862 34.21"/><path fill="url(#A)" d="M806.495 1585.65c8.885 16.03 1.413 26.7-16.688 23.83s-39.977-18.18-48.862-34.21-1.414-26.7 16.687-23.83c18.101 2.86 39.978 18.18 48.863 34.21"/><path fill="url(#B)" d="M870.845 1701.74c8.885 16.03 1.414 26.7-16.687 23.83-18.101-2.86-39.978-18.18-48.863-34.21s-1.413-26.7 16.688-23.83c18.101 2.86 39.977 18.18 48.862 34.21"/><path fill="url(#C)" d="M935.196 1817.83c8.885 16.03 1.414 26.7-16.687 23.83-18.101-2.86-39.977-18.18-48.862-34.21s-1.414-26.7 16.687-23.83c18.101 2.86 39.977 18.18 48.862 34.21"/><path fill="url(#D)" d="M999.546 1933.92c8.884 16.03 1.414 26.7-16.687 23.83-18.101-2.86-39.977-18.18-48.862-34.21s-1.414-26.7 16.687-23.83 39.977 18.18 48.862 34.21"/><path fill="url(#E)" d="M1063.9 2050.01c8.88 16.03 1.41 26.7-16.69 23.84-18.1-2.87-39.98-18.19-48.864-34.22s-1.414-26.7 16.684-23.83c18.1 2.87 39.98 18.18 48.87 34.21"/><path fill="url(#F)" d="M723.898 1519.62c8.885 16.03 1.414 26.7-16.687 23.83s-39.978-18.18-48.862-34.21-1.414-26.7 16.687-23.84c18.101 2.87 39.977 18.19 48.862 34.22"/><path fill="url(#G)" d="M788.247 1635.71c8.885 16.03 1.414 26.7-16.687 23.83s-39.977-18.18-48.862-34.21-1.414-26.7 16.687-23.83c18.101 2.86 39.977 18.18 48.862 34.21"/><path fill="url(#H)" d="M852.597 1751.8c8.885 16.03 1.414 26.7-16.687 23.83s-39.977-18.18-48.862-34.21-1.414-26.7 16.687-23.83c18.101 2.86 39.977 18.18 48.862 34.21"/><path fill="url(#I)" d="M916.948 1867.89c8.884 16.03 1.413 26.7-16.688 23.83-18.101-2.86-39.977-18.18-48.862-34.21s-1.413-26.7 16.688-23.83c18.101 2.86 39.977 18.18 48.862 34.21"/><path fill="url(#J)" d="M981.298 1983.98c8.885 16.03 1.414 26.7-16.687 23.83-18.101-2.86-39.978-18.18-48.863-34.21s-1.413-26.7 16.687-23.83 39.978 18.18 48.863 34.21"/><path fill="url(#K)" d="M842.991 1485.53c8.885 16.03 1.413 26.7-16.687 23.83-18.101-2.86-39.979-18.18-48.864-34.21s-1.413-26.7 16.688-23.83c18.101 2.86 39.978 18.18 48.863 34.21"/><path fill="url(#L)" d="M907.341 1601.62c8.885 16.03 1.414 26.7-16.687 23.83-18.101-2.86-39.978-18.18-48.862-34.21s-1.414-26.7 16.687-23.83 39.977 18.18 48.862 34.21"/><path fill="url(#M)" d="M971.691 1717.71c8.885 16.03 1.414 26.7-16.687 23.83-18.101-2.86-39.977-18.18-48.862-34.21s-1.414-26.7 16.687-23.83 39.977 18.18 48.862 34.21"/><path fill="url(#N)" d="M1036.04 1833.8c8.89 16.03 1.41 26.7-16.69 23.84-18.1-2.87-39.973-18.19-48.858-34.22s-1.414-26.7 16.687-23.83 39.981 18.19 48.861 34.21"/><path fill="url(#O)" d="M1100.39 1949.89c8.89 16.03 1.42 26.7-16.69 23.84-18.1-2.87-39.97-18.19-48.86-34.22-8.88-16.03-1.41-26.7 16.69-23.83s39.98 18.19 48.86 34.21"/><path fill="url(#P)" d="M1229.09 2182.08c8.89 16.03 1.42 26.7-16.69 23.83-18.1-2.87-39.97-18.19-48.86-34.22-8.88-16.02-1.41-26.69 16.69-23.83 18.1 2.87 39.98 18.19 48.86 34.22"/><path fill="url(#Q)" d="M824.742 1535.59c8.885 16.03 1.414 26.7-16.687 23.83-18.101-2.86-39.977-18.18-48.862-34.21s-1.414-26.7 16.687-23.83c18.101 2.86 39.977 18.18 48.862 34.21"/><path fill="url(#R)" d="M889.093 1651.68c8.885 16.03 1.413 26.7-16.688 23.83-18.101-2.86-39.977-18.18-48.862-34.21s-1.413-26.7 16.688-23.83c18.101 2.86 39.977 18.18 48.862 34.21"/><path fill="url(#S)" d="M953.444 1767.77c8.885 16.03 1.413 26.7-16.688 23.83-18.101-2.86-39.977-18.18-48.862-34.21s-1.414-26.7 16.687-23.83 39.978 18.18 48.863 34.21"/><path fill="url(#T)" d="M1017.79 1883.86c8.89 16.03 1.42 26.7-16.68 23.83-18.104-2.86-39.981-18.18-48.866-34.21s-1.413-26.7 16.687-23.83 39.979 18.18 48.859 34.21"/><path fill="url(#U)" d="M1082.14 1999.95c8.89 16.03 1.42 26.7-16.68 23.84-18.1-2.87-39.98-18.19-48.87-34.22-8.88-16.03-1.41-26.7 16.69-23.83s39.98 18.19 48.86 34.21"/><path fill="url(#V)" d="M1146.49 2116.04c8.89 16.03 1.42 26.7-16.68 23.84-18.1-2.87-39.98-18.19-48.87-34.22-8.88-16.03-1.41-26.7 16.69-23.83s39.98 18.19 48.86 34.21"/><path fill="url(#W)" d="M943.836 1501.5c8.885 16.03 1.414 26.7-16.687 23.84-18.101-2.87-39.977-18.19-48.862-34.22s-1.414-26.7 16.687-23.83 39.977 18.18 48.862 34.21"/><path fill="url(#X)" d="M1008.19 1617.59c8.88 16.03 1.41 26.7-16.692 23.84-18.101-2.87-39.977-18.19-48.862-34.22s-1.414-26.7 16.687-23.83 39.977 18.19 48.867 34.21"/><path fill="url(#Y)" d="M1072.54 1733.69c8.88 16.02 1.41 26.69-16.69 23.83-18.1-2.87-39.98-18.19-48.86-34.22-8.888-16.03-1.42-26.7 16.68-23.83s39.98 18.19 48.87 34.22"/><path fill="url(#Z)" d="M1136.89 1849.78c8.88 16.03 1.41 26.69-16.69 23.83-18.1-2.87-39.98-18.19-48.86-34.22-8.89-16.02-1.42-26.69 16.68-23.83 18.11 2.87 39.98 18.19 48.87 34.22"/><path fill="url(#aa)" d="M1201.24 1965.87c8.88 16.03 1.41 26.7-16.69 23.83s-39.98-18.19-48.86-34.21c-8.89-16.03-1.42-26.7 16.68-23.84 18.11 2.87 39.98 18.19 48.87 34.22"/><path fill="url(#ab)" d="M1265.59 2081.96c8.88 16.03 1.41 26.7-16.69 23.83s-39.98-18.19-48.86-34.21c-8.89-16.03-1.42-26.7 16.68-23.84 18.11 2.87 39.98 18.19 48.87 34.22"/><path fill="url(#ac)" d="M925.588 1551.56c8.885 16.03 1.414 26.7-16.687 23.83-18.101-2.86-39.977-18.18-48.862-34.21s-1.414-26.7 16.687-23.83 39.978 18.18 48.862 34.21"/><path fill="url(#ad)" d="M989.938 1667.65c8.885 16.03 1.413 26.7-16.688 23.84-18.1-2.87-39.977-18.19-48.862-34.22s-1.414-26.7 16.687-23.83 39.978 18.19 48.863 34.21"/><path fill="url(#ae)" d="M1054.29 1783.74c8.88 16.03 1.41 26.7-16.69 23.84-18.1-2.87-39.976-18.19-48.861-34.22s-1.413-26.7 16.691-23.83c18.1 2.87 39.97 18.19 48.86 34.21"/><path fill="url(#af)" d="M1118.64 1899.84c8.88 16.02 1.41 26.69-16.69 23.83-18.1-2.87-39.98-18.19-48.86-34.22-8.89-16.03-1.41-26.7 16.69-23.83s39.97 18.19 48.86 34.22"/><path fill="url(#ag)" d="M1182.99 2015.93c8.88 16.03 1.41 26.7-16.69 23.83s-39.98-18.19-48.86-34.22c-8.88-16.02-1.41-26.69 16.69-23.83 18.1 2.87 39.97 18.19 48.86 34.22"/><path fill="url(#ah)" d="M1044.68 1517.48c8.89 16.02 1.41 26.69-16.69 23.83-18.1-2.87-39.974-18.19-48.859-34.22-8.885-16.02-1.414-26.69 16.687-23.83 18.102 2.87 39.982 18.19 48.862 34.22"/><path fill="url(#ai)" d="M1109.03 1633.57c8.89 16.03 1.42 26.7-16.69 23.83-18.1-2.87-39.97-18.19-48.86-34.22-8.88-16.02-1.41-26.69 16.69-23.83 18.1 2.87 39.98 18.19 48.86 34.22"/><path fill="url(#aj)" d="M1173.38 1749.66c8.89 16.03 1.42 26.7-16.69 23.83-18.1-2.87-39.97-18.19-48.86-34.21-8.88-16.03-1.41-26.7 16.69-23.84 18.1 2.87 39.98 18.19 48.86 34.22"/><path fill="url(#ak)" d="M1237.73 1865.75c8.89 16.03 1.42 26.7-16.69 23.83-18.1-2.87-39.97-18.18-48.86-34.21-8.88-16.03-1.41-26.7 16.69-23.84 18.1 2.87 39.98 18.19 48.86 34.22"/><path fill="url(#al)" d="M1302.08 1981.84c8.89 16.03 1.42 26.7-16.69 23.83-18.1-2.87-39.97-18.18-48.86-34.21-8.88-16.03-1.41-26.7 16.69-23.83 18.1 2.86 39.98 18.18 48.86 34.21"/><path fill="url(#am)" d="M1366.43 2097.93c8.89 16.03 1.42 26.7-16.68 23.83-18.11-2.86-39.98-18.18-48.87-34.21-8.88-16.03-1.41-26.7 16.69-23.83 18.1 2.86 39.98 18.18 48.86 34.21"/><path fill="url(#an)" d="M1430.78 2214.02c8.89 16.03 1.42 26.7-16.68 23.83-18.11-2.86-39.98-18.18-48.87-34.21-8.88-16.03-1.41-26.7 16.69-23.83 18.1 2.86 39.98 18.18 48.86 34.21"/><path fill="url(#ao)" d="M1026.43 1567.54c8.89 16.02 1.42 26.69-16.68 23.83-18.104-2.87-39.981-18.19-48.866-34.22s-1.413-26.7 16.687-23.83 39.979 18.19 48.859 34.22"/><path fill="url(#ap)" d="M1090.78 1683.63c8.89 16.03 1.42 26.69-16.68 23.83-18.1-2.87-39.98-18.19-48.87-34.22-8.88-16.02-1.41-26.69 16.69-23.83 18.1 2.87 39.98 18.19 48.86 34.22"/><path fill="url(#aq)" d="M1155.13 1799.72c8.89 16.03 1.42 26.7-16.68 23.83s-39.98-18.19-48.87-34.21c-8.88-16.03-1.41-26.7 16.69-23.84 18.1 2.87 39.98 18.19 48.86 34.22"/><path fill="url(#ar)" d="M1219.48 1915.81c8.89 16.03 1.42 26.7-16.68 23.83s-39.98-18.19-48.86-34.21c-8.89-16.03-1.42-26.7 16.68-23.84 18.1 2.87 39.98 18.19 48.86 34.22"/><path fill="url(#as)" d="M1283.83 2031.9c8.89 16.03 1.42 26.7-16.68 23.83s-39.98-18.18-48.86-34.21c-8.89-16.03-1.42-26.7 16.68-23.83 18.1 2.86 39.98 18.18 48.86 34.21"/><path fill="url(#at)" d="M1348.18 2147.99c8.89 16.03 1.42 26.7-16.68 23.83s-39.98-18.18-48.86-34.21c-8.89-16.03-1.42-26.7 16.68-23.83 18.1 2.86 39.98 18.18 48.86 34.21"/><path fill="url(#au)" d="M1145.53 1533.45c8.88 16.03 1.41 26.7-16.69 23.83s-39.98-18.18-48.86-34.21c-8.89-16.03-1.42-26.7 16.68-23.84 18.11 2.87 39.98 18.19 48.87 34.22"/><path fill="url(#av)" d="M1209.88 1649.54c8.88 16.03 1.41 26.7-16.69 23.83s-39.98-18.18-48.86-34.21c-8.89-16.03-1.42-26.7 16.68-23.83 18.11 2.86 39.98 18.18 48.87 34.21"/><path fill="url(#aw)" d="M1274.23 1765.63c8.88 16.03 1.41 26.7-16.69 23.83s-39.98-18.18-48.86-34.21c-8.89-16.03-1.42-26.7 16.68-23.83 18.11 2.86 39.98 18.18 48.87 34.21"/><path fill="url(#ax)" d="M1338.58 1881.72c8.88 16.03 1.41 26.7-16.69 23.83-18.1-2.86-39.98-18.18-48.86-34.21-8.89-16.03-1.42-26.7 16.68-23.83 18.11 2.86 39.98 18.18 48.87 34.21"/><path fill="url(#ay)" d="M1402.93 1997.81c8.88 16.03 1.41 26.7-16.69 23.83-18.1-2.86-39.98-18.18-48.86-34.21-8.89-16.03-1.42-26.7 16.69-23.83 18.1 2.86 39.97 18.18 48.86 34.21"/><path fill="url(#az)" d="M1467.28 2113.9c8.88 16.03 1.41 26.7-16.69 23.83-18.1-2.86-39.98-18.18-48.86-34.21-8.89-16.03-1.42-26.7 16.69-23.83 18.1 2.87 39.97 18.18 48.86 34.21"/><path fill="url(#aA)" d="M1531.63 2229.99c8.88 16.03 1.41 26.7-16.69 23.84-18.1-2.87-39.98-18.19-48.86-34.22-8.89-16.03-1.42-26.7 16.69-23.83 18.1 2.87 39.97 18.18 48.86 34.21"/><path fill="url(#aB)" d="M1127.28 1583.51c8.88 16.03 1.41 26.7-16.69 23.83s-39.98-18.19-48.86-34.21c-8.89-16.03-1.41-26.7 16.69-23.84 18.1 2.87 39.97 18.19 48.86 34.22"/><path fill="url(#aC)" d="M1191.63 1699.6c8.88 16.03 1.41 26.7-16.69 23.83s-39.98-18.18-48.86-34.21-1.41-26.7 16.69-23.84c18.1 2.87 39.97 18.19 48.86 34.22"/><path fill="url(#aD)" d="M1255.98 1815.69c8.88 16.03 1.41 26.7-16.69 23.83s-39.97-18.18-48.86-34.21c-8.88-16.03-1.41-26.7 16.69-23.83 18.1 2.86 39.97 18.18 48.86 34.21"/><path fill="url(#aE)" d="M1320.33 1931.78c8.88 16.03 1.41 26.7-16.69 23.83s-39.97-18.18-48.86-34.21c-8.88-16.03-1.41-26.7 16.69-23.83 18.1 2.86 39.97 18.18 48.86 34.21"/><path fill="url(#aF)" d="M1384.68 2047.87c8.88 16.03 1.41 26.7-16.69 23.83-18.1-2.86-39.97-18.18-48.86-34.21-8.88-16.03-1.41-26.7 16.69-23.83 18.1 2.86 39.97 18.18 48.86 34.21"/><path fill="url(#aG)" d="M1449.03 2163.96c8.88 16.03 1.41 26.7-16.69 23.83-18.1-2.86-39.97-18.18-48.86-34.21-8.88-16.03-1.41-26.7 16.69-23.83s39.98 18.18 48.86 34.21"/><path fill="url(#aH)" d="M1513.38 2280.05c8.89 16.03 1.41 26.7-16.69 23.83-18.1-2.86-39.97-18.18-48.86-34.21-8.88-16.03-1.41-26.7 16.69-23.83s39.98 18.18 48.86 34.21"/><path fill="url(#aI)" d="M1246.37 1549.42c8.89 16.03 1.42 26.7-16.69 23.83-18.1-2.86-39.97-18.18-48.86-34.21-8.88-16.03-1.41-26.7 16.69-23.83 18.1 2.86 39.98 18.18 48.86 34.21"/><path fill="url(#aJ)" d="M1310.72 1665.51c8.89 16.03 1.42 26.7-16.69 23.83-18.1-2.86-39.97-18.18-48.86-34.21-8.88-16.03-1.41-26.7 16.69-23.83 18.1 2.86 39.98 18.18 48.86 34.21"/><path fill="url(#aK)" d="M1375.07 1781.6c8.89 16.03 1.42 26.7-16.68 23.83-18.11-2.86-39.98-18.18-48.87-34.21-8.88-16.03-1.41-26.7 16.69-23.83s39.98 18.18 48.86 34.21"/><path fill="url(#aL)" d="M1439.42 1897.69c8.89 16.03 1.42 26.7-16.68 23.83-18.11-2.86-39.98-18.18-48.87-34.21-8.88-16.03-1.41-26.7 16.69-23.83s39.98 18.18 48.86 34.21"/><path fill="url(#aM)" d="M1503.77 2013.78c8.89 16.03 1.42 26.7-16.68 23.84-18.11-2.87-39.98-18.19-48.87-34.22-8.88-16.03-1.41-26.7 16.69-23.83s39.98 18.19 48.86 34.21"/><path fill="url(#aN)" d="M1568.12 2129.87c8.89 16.03 1.42 26.7-16.68 23.84-18.11-2.87-39.98-18.19-48.87-34.22-8.88-16.03-1.41-26.7 16.69-23.83s39.98 18.19 48.86 34.21"/><path fill="url(#aO)" d="M1632.47 2245.97c8.89 16.02 1.42 26.69-16.68 23.83-18.11-2.87-39.98-18.19-48.87-34.22-8.88-16.03-1.41-26.69 16.69-23.83 18.1 2.87 39.98 18.19 48.86 34.22"/><path fill="url(#aP)" d="M1228.12 1599.48c8.89 16.03 1.42 26.7-16.68 23.83s-39.98-18.18-48.86-34.21c-8.89-16.03-1.42-26.7 16.68-23.83 18.1 2.86 39.98 18.18 48.86 34.21"/><path fill="url(#aQ)" d="M1292.47 1715.57c8.89 16.03 1.42 26.7-16.68 23.83-18.1-2.86-39.98-18.18-48.86-34.21-8.89-16.03-1.42-26.7 16.68-23.83 18.1 2.86 39.98 18.18 48.86 34.21"/><path fill="url(#aR)" d="M1356.82 1831.66c8.89 16.03 1.42 26.7-16.68 23.83-18.1-2.86-39.98-18.18-48.86-34.21-8.89-16.03-1.42-26.7 16.68-23.83 18.1 2.86 39.98 18.18 48.86 34.21"/><path fill="url(#aS)" d="M1421.17 1947.75c8.89 16.03 1.42 26.7-16.68 23.83-18.1-2.86-39.98-18.18-48.86-34.21-8.89-16.03-1.42-26.7 16.68-23.83s39.98 18.18 48.86 34.21"/><path fill="url(#aT)" d="M1485.53 2063.84c8.88 16.03 1.41 26.7-16.69 23.84-18.1-2.87-39.98-18.19-48.86-34.22-8.89-16.03-1.42-26.7 16.68-23.83s39.98 18.18 48.87 34.21"/><path fill="url(#aU)" d="M1549.88 2179.93c8.88 16.03 1.41 26.7-16.69 23.84-18.1-2.87-39.98-18.19-48.86-34.22-8.89-16.03-1.42-26.7 16.68-23.83s39.98 18.19 48.87 34.21"/><path fill="url(#aV)" d="M1347.22 1565.39c8.88 16.03 1.41 26.7-16.69 23.83-18.1-2.86-39.98-18.18-48.86-34.21-8.89-16.03-1.42-26.7 16.68-23.83 18.11 2.87 39.98 18.18 48.87 34.21"/><path fill="url(#aW)" d="M1411.57 1681.48c8.88 16.03 1.41 26.7-16.69 23.84-18.1-2.87-39.98-18.19-48.86-34.22-8.89-16.03-1.42-26.7 16.69-23.83 18.1 2.87 39.97 18.19 48.86 34.21"/><path fill="url(#aX)" d="M1475.92 1797.57c8.88 16.03 1.41 26.7-16.69 23.84-18.1-2.87-39.98-18.19-48.86-34.22-8.89-16.03-1.42-26.7 16.69-23.83 18.1 2.87 39.97 18.19 48.86 34.21"/><path fill="url(#aY)" d="M1540.27 1913.67c8.88 16.02 1.41 26.69-16.69 23.83-18.1-2.87-39.98-18.19-48.86-34.22-8.89-16.03-1.42-26.7 16.69-23.83 18.1 2.87 39.97 18.19 48.86 34.22"/><path fill="url(#aZ)" d="M1604.62 2029.76c8.88 16.03 1.41 26.7-16.69 23.83s-39.98-18.19-48.86-34.22c-8.89-16.02-1.42-26.69 16.69-23.83 18.1 2.87 39.97 18.19 48.86 34.22"/><path fill="url(#ba)" d="M1668.97 2145.85c8.88 16.03 1.41 26.7-16.69 23.83s-39.98-18.19-48.86-34.21c-8.89-16.03-1.42-26.7 16.69-23.84 18.1 2.87 39.97 18.19 48.86 34.22"/><path fill="url(#bb)" d="M1733.32 2261.94c8.88 16.03 1.41 26.7-16.69 23.83s-39.98-18.19-48.86-34.21c-8.89-16.03-1.41-26.7 16.69-23.84 18.1 2.87 39.97 18.19 48.86 34.22"/><path fill="url(#bc)" d="M1328.97 1615.45c8.88 16.03 1.41 26.7-16.69 23.83-18.1-2.86-39.97-18.18-48.86-34.21-8.88-16.03-1.41-26.7 16.69-23.83s39.97 18.18 48.86 34.21"/><path fill="url(#bd)" d="M1393.32 1731.54c8.88 16.03 1.41 26.7-16.69 23.83-18.1-2.86-39.97-18.18-48.86-34.21-8.88-16.03-1.41-26.7 16.69-23.83s39.97 18.18 48.86 34.21"/><path fill="url(#be)" d="M1457.67 1847.63c8.88 16.03 1.41 26.7-16.69 23.84-18.1-2.87-39.97-18.19-48.86-34.22-8.88-16.03-1.41-26.7 16.69-23.83s39.98 18.19 48.86 34.21"/><path fill="url(#bf)" d="M1522.02 1963.72c8.89 16.03 1.41 26.7-16.69 23.84-18.1-2.87-39.97-18.19-48.86-34.22-8.88-16.03-1.41-26.7 16.69-23.83s39.98 18.19 48.86 34.21"/><path fill="url(#bg)" d="M1586.37 2079.82c8.89 16.02 1.41 26.69-16.69 23.83-18.1-2.87-39.97-18.19-48.86-34.22-8.88-16.03-1.41-26.69 16.69-23.83 18.1 2.87 39.98 18.19 48.86 34.22"/><path fill="url(#bh)" d="M1650.72 2195.91c8.89 16.03 1.41 26.7-16.69 23.83s-39.97-18.19-48.86-34.22c-8.88-16.02-1.41-26.69 16.69-23.83 18.1 2.87 39.98 18.19 48.86 34.22"/><path fill="url(#bi)" d="M1448.06 1581.37c8.89 16.02 1.42 26.69-16.68 23.83-18.11-2.87-39.98-18.19-48.87-34.22-8.88-16.03-1.41-26.7 16.69-23.83s39.98 18.19 48.86 34.22"/><path fill="url(#bj)" d="M1512.41 1697.46c8.89 16.03 1.42 26.69-16.68 23.83-18.11-2.87-39.98-18.19-48.87-34.22-8.88-16.02-1.41-26.69 16.69-23.83 18.1 2.87 39.98 18.19 48.86 34.22"/><path fill="url(#bk)" d="M1576.76 1813.55c8.89 16.03 1.42 26.7-16.68 23.83-18.11-2.87-39.98-18.19-48.87-34.21-8.88-16.03-1.41-26.7 16.69-23.84 18.1 2.87 39.98 18.19 48.86 34.22"/><path fill="url(#bl)" d="M1641.11 1929.64c8.89 16.03 1.42 26.7-16.68 23.83-18.11-2.87-39.98-18.19-48.87-34.21-8.88-16.03-1.41-26.7 16.69-23.84 18.1 2.87 39.98 18.19 48.86 34.22"/><path fill="url(#bm)" d="M1705.46 2045.73c8.89 16.03 1.42 26.7-16.68 23.83s-39.98-18.18-48.87-34.21c-8.88-16.03-1.41-26.7 16.69-23.83 18.1 2.86 39.98 18.18 48.86 34.21"/><path fill="url(#bn)" d="M1769.81 2161.82c8.89 16.03 1.42 26.7-16.68 23.83s-39.98-18.18-48.87-34.21c-8.88-16.03-1.41-26.7 16.69-23.83 18.1 2.86 39.98 18.18 48.86 34.21"/><path fill="url(#bo)" d="M1834.16 2277.91c8.89 16.03 1.42 26.7-16.68 23.83-18.1-2.86-39.98-18.18-48.87-34.21-8.88-16.03-1.41-26.7 16.69-23.83 18.1 2.86 39.98 18.18 48.86 34.21"/><path fill="url(#bp)" d="M1429.81 1631.42c8.89 16.03 1.42 26.7-16.68 23.84-18.1-2.87-39.98-18.19-48.86-34.22-8.89-16.03-1.42-26.7 16.68-23.83s39.98 18.19 48.86 34.21"/><path fill="url(#bq)" d="M1494.17 1747.52c8.88 16.02 1.41 26.69-16.69 23.83-18.1-2.87-39.98-18.19-48.86-34.22-8.89-16.03-1.42-26.7 16.68-23.83s39.98 18.19 48.87 34.22"/><path fill="url(#br)" d="M1558.52 1863.61c8.88 16.03 1.41 26.69-16.69 23.83-18.1-2.87-39.98-18.19-48.86-34.22-8.89-16.02-1.42-26.69 16.68-23.83 18.1 2.87 39.98 18.19 48.87 34.22"/><path fill="url(#bs)" d="M1622.87 1979.7c8.88 16.03 1.41 26.7-16.69 23.83s-39.98-18.19-48.86-34.21c-8.89-16.03-1.42-26.7 16.68-23.84 18.1 2.87 39.98 18.19 48.87 34.22"/><path fill="url(#bt)" d="M1687.22 2095.79c8.88 16.03 1.41 26.7-16.69 23.83s-39.98-18.19-48.86-34.21c-8.89-16.03-1.42-26.7 16.68-23.84 18.1 2.87 39.98 18.19 48.87 34.22"/><path fill="url(#bu)" d="M1751.57 2211.88c8.88 16.03 1.41 26.7-16.69 23.83s-39.98-18.18-48.86-34.21c-8.89-16.03-1.42-26.7 16.68-23.83 18.1 2.86 39.98 18.18 48.87 34.21"/><path fill="url(#bv)" d="M1815.92 2327.97c8.88 16.03 1.41 26.7-16.69 23.83s-39.98-18.18-48.86-34.21c-8.89-16.03-1.42-26.7 16.68-23.83 18.1 2.86 39.98 18.18 48.87 34.21"/><path fill="url(#bw)" d="M1548.91 1597.34c8.88 16.03 1.41 26.7-16.69 23.83s-39.98-18.19-48.86-34.21c-8.89-16.03-1.42-26.7 16.69-23.84 18.1 2.87 39.97 18.19 48.86 34.22"/><path fill="url(#bx)" d="M1613.26 1713.43c8.88 16.03 1.41 26.7-16.69 23.83s-39.98-18.18-48.86-34.21c-8.89-16.03-1.42-26.7 16.69-23.84 18.1 2.87 39.97 18.19 48.86 34.22"/><path fill="url(#by)" d="M1677.61 1829.52c8.88 16.03 1.41 26.7-16.69 23.83s-39.98-18.18-48.86-34.21c-8.89-16.03-1.42-26.7 16.69-23.83 18.1 2.86 39.97 18.18 48.86 34.21"/><path fill="url(#bz)" d="M1741.96 1945.61c8.88 16.03 1.41 26.7-16.69 23.83-18.1-2.86-39.98-18.18-48.86-34.21-8.89-16.03-1.41-26.7 16.69-23.83 18.1 2.86 39.97 18.18 48.86 34.21"/><path fill="url(#bA)" d="M1806.31 2061.7c8.88 16.03 1.41 26.7-16.69 23.83-18.1-2.86-39.98-18.18-48.86-34.21-8.89-16.03-1.41-26.7 16.69-23.83 18.1 2.86 39.97 18.18 48.86 34.21"/><path fill="url(#bB)" d="M1870.66 2177.79c8.88 16.03 1.41 26.7-16.69 23.83-18.1-2.86-39.98-18.18-48.86-34.21-8.89-16.03-1.41-26.7 16.69-23.83s39.97 18.18 48.86 34.21"/><path fill="url(#bC)" d="M1530.66 1647.4c8.89 16.03 1.41 26.7-16.69 23.83s-39.97-18.19-48.86-34.22c-8.88-16.02-1.41-26.69 16.69-23.83 18.1 2.87 39.98 18.19 48.86 34.22"/><path fill="url(#bD)" d="M1595.01 1763.49c8.89 16.03 1.41 26.7-16.69 23.83s-39.97-18.19-48.86-34.21c-8.88-16.03-1.41-26.7 16.69-23.84 18.1 2.87 39.98 18.19 48.86 34.22"/><path fill="url(#bE)" d="M1659.36 1879.58c8.89 16.03 1.41 26.7-16.69 23.83s-39.97-18.18-48.86-34.21c-8.88-16.03-1.41-26.7 16.69-23.84 18.1 2.87 39.98 18.19 48.86 34.22"/><path fill="url(#bF)" d="M1723.71 1995.67c8.89 16.03 1.41 26.7-16.69 23.83s-39.97-18.18-48.86-34.21c-8.88-16.03-1.41-26.7 16.69-23.83 18.1 2.86 39.98 18.18 48.86 34.21"/><path fill="url(#bG)" d="M1788.06 2111.76c8.89 16.03 1.41 26.7-16.69 23.83-18.1-2.86-39.97-18.18-48.86-34.21-8.88-16.03-1.41-26.7 16.69-23.83 18.1 2.86 39.98 18.18 48.86 34.21"/><path fill="url(#bH)" d="M1852.41 2227.85c8.89 16.03 1.42 26.7-16.69 23.83-18.1-2.86-39.97-18.18-48.86-34.21-8.88-16.03-1.41-26.7 16.69-23.83 18.1 2.86 39.98 18.18 48.86 34.21"/><path fill="url(#bI)" d="M1649.75 1613.31c8.89 16.03 1.42 26.7-16.68 23.83-18.11-2.87-39.98-18.18-48.87-34.21-8.88-16.03-1.41-26.7 16.69-23.83 18.1 2.86 39.98 18.18 48.86 34.21"/><path fill="url(#bJ)" d="M1714.1 1729.4c8.89 16.03 1.42 26.7-16.68 23.83-18.1-2.86-39.98-18.18-48.87-34.21-8.88-16.03-1.41-26.7 16.69-23.83 18.1 2.86 39.98 18.18 48.86 34.21"/><path fill="url(#bK)" d="M1778.45 1845.49c8.89 16.03 1.42 26.7-16.68 23.83-18.1-2.86-39.98-18.18-48.87-34.21-8.88-16.03-1.41-26.7 16.69-23.83 18.1 2.86 39.98 18.18 48.86 34.21"/><path fill="url(#bL)" d="M1842.8 1961.58c8.89 16.03 1.42 26.7-16.68 23.83-18.1-2.86-39.98-18.18-48.87-34.21-8.88-16.03-1.41-26.7 16.69-23.83s39.98 18.18 48.86 34.21"/><path fill="url(#bM)" d="M1907.15 2077.67c8.89 16.03 1.42 26.7-16.68 23.84-18.1-2.87-39.98-18.19-48.87-34.22-8.88-16.03-1.41-26.7 16.69-23.83s39.98 18.18 48.86 34.21"/><path fill="url(#bN)" d="M1971.5 2193.76c8.89 16.03 1.42 26.7-16.68 23.84-18.1-2.87-39.98-18.19-48.87-34.22-8.88-16.03-1.41-26.7 16.69-23.83s39.98 18.19 48.86 34.21"/><path fill="url(#bO)" d="M2035.85 2309.86c8.89 16.02 1.42 26.69-16.68 23.83-18.1-2.87-39.98-18.19-48.87-34.22-8.88-16.03-1.41-26.7 16.69-23.83s39.98 18.19 48.86 34.22"/><path fill="url(#bP)" d="M1631.51 1663.37c8.88 16.03 1.41 26.7-16.69 23.83s-39.98-18.18-48.86-34.21c-8.89-16.03-1.42-26.7 16.68-23.83 18.1 2.86 39.98 18.18 48.87 34.21"/><path fill="url(#bQ)" d="M1695.86 1779.46c8.88 16.03 1.41 26.7-16.69 23.83s-39.98-18.18-48.86-34.21c-8.89-16.03-1.42-26.7 16.68-23.83 18.1 2.86 39.98 18.18 48.87 34.21"/><path fill="url(#bR)" d="M1760.21 1895.55c8.88 16.03 1.41 26.7-16.69 23.83-18.1-2.86-39.98-18.18-48.86-34.21-8.89-16.03-1.42-26.7 16.68-23.83 18.1 2.86 39.98 18.18 48.87 34.21"/><path fill="url(#bS)" d="M1824.56 2011.64c8.88 16.03 1.41 26.7-16.69 23.83-18.1-2.86-39.98-18.18-48.86-34.21-8.89-16.03-1.42-26.7 16.68-23.83s39.98 18.18 48.87 34.21"/><path fill="url(#bT)" d="M1888.91 2127.73c8.88 16.03 1.41 26.7-16.69 23.83-18.1-2.86-39.98-18.18-48.86-34.21-8.89-16.03-1.42-26.7 16.68-23.83 18.11 2.87 39.98 18.18 48.87 34.21"/><path fill="url(#bU)" d="M1953.26 2243.82c8.88 16.03 1.41 26.7-16.69 23.84-18.1-2.87-39.98-18.19-48.86-34.22-8.89-16.03-1.42-26.7 16.68-23.83 18.11 2.87 39.98 18.18 48.87 34.21"/><path fill="url(#bV)" d="M1750.6 1629.28c8.88 16.03 1.41 26.7-16.69 23.83-18.1-2.86-39.98-18.18-48.86-34.21-8.89-16.03-1.41-26.7 16.69-23.83s39.97 18.18 48.86 34.21"/><path fill="url(#bW)" d="M1814.95 1745.37c8.88 16.03 1.41 26.7-16.69 23.83-18.1-2.86-39.98-18.18-48.86-34.21-8.89-16.03-1.41-26.7 16.69-23.83s39.97 18.18 48.86 34.21"/><path fill="url(#bX)" d="M1879.3 1861.46c8.88 16.03 1.41 26.7-16.69 23.84-18.1-2.87-39.98-18.19-48.86-34.22-8.89-16.03-1.41-26.7 16.69-23.83s39.97 18.19 48.86 34.21"/><path fill="url(#bY)" d="M1943.65 1977.55c8.88 16.03 1.41 26.7-16.69 23.84-18.1-2.87-39.98-18.19-48.86-34.22-8.89-16.03-1.41-26.7 16.69-23.83s39.97 18.19 48.86 34.21"/><path fill="url(#bZ)" d="M2008 2093.65c8.88 16.02 1.41 26.69-16.69 23.83-18.1-2.87-39.98-18.19-48.86-34.22-8.89-16.03-1.41-26.69 16.69-23.83 18.1 2.87 39.97 18.19 48.86 34.22"/><path fill="url(#ca)" d="M2072.35 2209.74c8.88 16.03 1.41 26.7-16.69 23.83s-39.98-18.19-48.86-34.22c-8.88-16.02-1.41-26.69 16.69-23.83 18.1 2.87 39.97 18.19 48.86 34.22"/><path fill="url(#cb)" d="M2136.7 2325.83c8.88 16.03 1.41 26.7-16.69 23.83s-39.97-18.19-48.86-34.21c-8.88-16.03-1.41-26.7 16.69-23.84 18.1 2.87 39.97 18.19 48.86 34.22"/><path fill="url(#cc)" d="M2201.05 2441.92c8.88 16.03 1.41 26.7-16.69 23.83s-39.97-18.18-48.86-34.21c-8.88-16.03-1.41-26.7 16.69-23.84 18.1 2.87 39.97 18.19 48.86 34.22"/><path fill="url(#cd)" d="M1732.35 1679.34c8.89 16.03 1.41 26.7-16.69 23.83-18.1-2.86-39.97-18.18-48.86-34.21-8.88-16.03-1.41-26.7 16.69-23.83 18.1 2.86 39.98 18.18 48.86 34.21"/><path fill="url(#ce)" d="M1796.7 1795.43c8.89 16.03 1.41 26.7-16.69 23.83-18.1-2.86-39.97-18.18-48.86-34.21-8.88-16.03-1.41-26.7 16.69-23.83s39.98 18.18 48.86 34.21"/><path fill="url(#cf)" d="M1861.05 1911.52c8.89 16.03 1.42 26.7-16.69 23.84-18.1-2.87-39.97-18.19-48.86-34.22-8.88-16.03-1.41-26.7 16.69-23.83s39.98 18.18 48.86 34.21"/><path fill="url(#cg)" d="M1925.4 2027.61c8.89 16.03 1.42 26.7-16.69 23.84-18.1-2.87-39.97-18.19-48.86-34.22-8.88-16.03-1.41-26.7 16.69-23.83s39.98 18.19 48.86 34.21"/><path fill="url(#ch)" d="M1989.75 2143.71c8.89 16.02 1.42 26.69-16.69 23.83-18.1-2.87-39.97-18.19-48.86-34.22-8.88-16.03-1.41-26.7 16.69-23.83s39.98 18.19 48.86 34.22"/><path fill="url(#ci)" d="M2054.1 2259.8c8.89 16.02 1.42 26.69-16.69 23.83-18.1-2.87-39.97-18.19-48.86-34.22-8.88-16.02-1.41-26.69 16.69-23.83 18.1 2.87 39.98 18.19 48.86 34.22"/><path fill="url(#cj)" d="M2118.45 2375.89c8.89 16.03 1.42 26.7-16.69 23.83-18.1-2.87-39.97-18.19-48.86-34.22-8.88-16.02-1.41-26.69 16.69-23.83 18.1 2.87 39.98 18.19 48.86 34.22"/></g><path fill="#35008C" fill-rule="evenodd" d="M2179.67 408.012a11 11 0 0 1 1.98-.038l7.19.507c2.83.199 5.47 1.476 7.39 3.567l86.61 94.495a10.97 10.97 0 0 1 2.82 6.057l133.89 1027.08c.64 4.9-2.04 9.62-6.56 11.6-2.2.96-4.65 1.18-6.99.62-2.34-.55-4.43-1.85-5.97-3.69l-21.43-25.77 40.98 406.07c.45 4.41-1.77 8.65-5.63 10.8-3.87 2.16-8.64 1.8-12.15-.89l-154.32-118.66v417.28c0 4.27-2.45 8.16-6.29 10-1.89.9-3.99 1.25-6.07 1.01-2.07-.24-4.04-1.06-5.67-2.37l-32.46-26.12 50.32 281.71c.79 4.39-1.14 8.83-4.89 11.25a11 11 0 0 1-6.16 1.78c-2.18-.03-4.31-.7-6.11-1.93l-379.66-258.99-50.53 101.85c-1.4 2.81-3.91 4.9-6.93 5.75s-6.25.38-8.91-1.29l-260.97-164.18v105.15c0 4.13-2.29 7.91-5.94 9.82-1.79.94-3.81 1.37-5.83 1.25-2.02-.13-3.97-.81-5.63-1.96l-406.6-281.79 154.1 202.35c3.42 4.48 2.92 10.82-1.15 14.72a11.09 11.09 0 0 1-7.28 3.07c-2.72.1-5.38-.81-7.47-2.55l-848.929-705.44a11.1 11.1 0 0 1-2.949-3.81l-57.079-121.53a11.08 11.08 0 0 1 .242-9.91l18.136-34.18c.298-.56.643-1.1 1.033-1.6l641.74-827.422a11.076 11.076 0 0 1 7.554-4.225zm1.42 22.148L1004.18 558.981 365.909 1381.93l-15.092 28.45 53.673 114.27 772.09 641.6-137.52-180.57c-1.6-2.1-2.39-4.7-2.24-7.34a11.078 11.078 0 0 1 17.38-8.49l446.78 309.64v-104.05c0-4.04 2.19-7.75 5.73-9.7 3.53-1.96 7.84-1.83 11.26.32l267.58 168.33 50.74-102.27c1.43-2.88 4.03-4.99 7.13-5.8s6.4-.24 9.05 1.56l368.37 251.31-50.88-284.88c-.39-2.22-.1-4.51.84-6.57a11.1 11.1 0 0 1 4.42-4.92c3.98-2.35 9-1.99 12.6.91l37.49 30.16v-416.63c0-4.23 2.4-8.08 6.19-9.95 3.79-1.86 8.31-1.41 11.65 1.16l151.8 116.71-42.05-416.6c-.49-4.85 2.24-9.45 6.74-11.33 4.49-1.89 9.69-.62 12.81 3.13l20.17 24.25-128.49-985.689-81.26-88.655z" clip-rule="evenodd"/><path fill="#35008C" fill-rule="evenodd" d="M2125.92 150.679 2059.3 80.88a15.84 15.84 0 0 0-10.62-4.88L824.995 11.218a15.84 15.84 0 0 0-7.806 1.593L699.416 70.525a15.84 15.84 0 0 0-6.715 6.248L108.011 1080.29a15.83 15.83 0 0 0-.727 14.54l41.669 91.42a15.8 15.8 0 0 0 3.733 5.13l302.891 276.51a15.9 15.9 0 0 0 8.521 3.99L1713.61 1643.6c3.44.48 6.95-.19 9.97-1.91l125.61-71.18c3.41-1.93 5.98-5.05 7.22-8.77l181.76-545.28c1.04-3.11 1.08-6.46.14-9.6l-43.69-144.453 114.43-65.089c3.43-1.951 6-5.113 7.23-8.866l82.46-253.487c.82-2.524 1-5.214.51-7.823l-69.22-368.453a15.74 15.74 0 0 0-4.11-8.01m-940.84 570.405-53.69 120.587 193.64 20.244c4.4-4.107 12.5-13.906 9.68-20.244s-36.97-54.279-53.69-77.457l14.08-29.046z" clip-rule="evenodd"/><path fill="#35008C" fill-rule="evenodd" d="M824.409 22.288a4.75 4.75 0 0 0-2.342.479L704.294 80.48a4.75 4.75 0 0 0-2.015 1.875L117.589 1085.87a4.74 4.74 0 0 0-.218 4.36l41.669 91.43c.266.58.647 1.1 1.12 1.53l302.891 276.51c.71.65 1.602 1.07 2.556 1.2l1249.513 171.72c1.03.14 2.08-.06 2.99-.57l125.62-71.18a4.76 4.76 0 0 0 2.16-2.63l181.76-545.29c.32-.93.33-1.94.04-2.88L1984 865.617c-1.49-4.954.63-10.286 5.13-12.845l114.43-65.089a4.7 4.7 0 0 0 2.17-2.66l82.47-253.487c.25-.757.3-1.564.15-2.347l-69.21-368.452a4.7 4.7 0 0 0-1.24-2.403l-66.62-69.799a4.7 4.7 0 0 0-3.18-1.464zm-12.098-19.43a26.9 26.9 0 0 1 13.27-2.71L2049.27 64.931a26.94 26.94 0 0 1 18.05 8.296l66.62 69.798a26.9 26.9 0 0 1 6.99 13.619l69.21 368.452c.83 4.434.54 9.008-.86 13.299l-82.46 253.487a26.96 26.96 0 0 1-12.29 15.073l-106.74 60.714 41.13 135.981a26.95 26.95 0 0 1-.23 16.31l-181.76 545.29a27 27 0 0 1-12.27 14.91l-125.62 71.18a26.96 26.96 0 0 1-16.94 3.25L462.589 1482.86a26.96 26.96 0 0 1-14.486-6.78l-302.891-276.51a27 27 0 0 1-6.347-8.72l-41.67-91.42a26.93 26.93 0 0 1 1.237-24.72L683.122 71.193a26.93 26.93 0 0 1 11.415-10.622zm362.639 713.718a11.085 11.085 0 0 1 11.53-6.487l110.03 14.083c3.54.453 6.64 2.582 8.34 5.72s1.78 6.902.23 10.113l-11.2 23.096c8.14 11.327 18.84 26.33 28.28 39.797 5.5 7.86 10.61 15.24 14.53 21.078 1.95 2.913 3.65 5.497 4.97 7.591 1.17 1.857 2.45 3.962 3.18 5.603 1.98 4.452 1.75 8.869.97 12.25-.78 3.363-2.24 6.399-3.69 8.856-2.9 4.897-6.78 9.18-9.53 11.745a11.1 11.1 0 0 1-4.04 2.407c-1.5.504-3.09.679-4.67.514l-193.65-20.245a11.1 11.1 0 0 1-4.88-1.726 11 11 0 0 1-3.56-3.754 11.1 11.1 0 0 1-1.48-4.963c-.09-1.748.24-3.493.95-5.091zm16.9 16.552-44.13 99.106 172.97 18.082c.85-1.057 1.68-2.2 2.35-3.332.46-.779.75-1.4.93-1.855-.35-.589-.7-1.172-1.07-1.747-1.15-1.831-2.72-4.213-4.62-7.048-3.8-5.658-8.81-12.9-14.28-20.715-10.94-15.619-23.63-33.355-31.97-44.918a11.06 11.06 0 0 1-2.06-5.525c-.17-1.994.2-3.997 1.07-5.798l7.36-15.172z" clip-rule="evenodd"/><path fill="#FFE000" d="M2029.83 103.552 822.256 37.817 725.101 85.53l-572.732 991.94 36.216 77.95 1374.755 166.77 117.77-65.82 212.84-573.533-58.43-71.401-346.74-28.402-109.59 57.744-50.03 112.738 53.28 75.557-30.06 69.565-641.368-63.927L967.805 342.31l527.255 37.384 52.71 66.84 342.35 25.437 102.22-54.288 94.25-253.98z"/><path fill="#35008C" fill-rule="evenodd" d="M820.159 33.554a4.75 4.75 0 0 1 2.352-.48L2030.09 98.81a4.74 4.74 0 0 1 3.19 1.484l56.77 60.151a4.77 4.77 0 0 1 1.2 2.315c.17.868.1 1.768-.21 2.598l-94.25 253.98a4.7 4.7 0 0 1-2.22 2.543l-102.23 54.288c-.79.421-1.68.609-2.58.542l-342.34-25.437a4.74 4.74 0 0 1-3.38-1.795l-51.42-65.192-522.046-37.016-252.104 483.41 630.92 62.886 27.63-63.932-51.75-73.379a4.8 4.8 0 0 1-.84-2.272c-.09-.818.05-1.643.38-2.394l50.04-112.738a4.75 4.75 0 0 1 2.12-2.276l109.59-57.744c.8-.421 1.71-.606 2.61-.532l346.74 28.402c1.28.105 2.47.728 3.28 1.726l58.43 71.402c.52.642.87 1.409 1.01 2.227s.06 1.656-.23 2.434l-212.84 573.539a4.7 4.7 0 0 1-2.14 2.49l-117.76 65.82c-.88.49-1.89.69-2.89.57L188.01 1160.14c-.803-.1-1.567-.4-2.221-.88a4.7 4.7 0 0 1-1.516-1.84l-36.215-77.95c-.653-1.4-.58-3.04.194-4.38L720.983 83.156a4.76 4.76 0 0 1 2.021-1.89zm3.075 9.076L728.49 89.159 157.715 1077.7l34.062 73.32 1370.603 166.27 114.88-64.21 211.28-569.341-55.42-67.732-343.35-28.124-106.91 56.331-48.27 108.768 51.73 73.354c.47.664.76 1.439.85 2.248.08.81-.05 1.628-.37 2.375l-30.06 69.565a4.74 4.74 0 0 1-1.95 2.209c-.87.511-1.88.733-2.88.633L710.538 839.44a4.74 4.74 0 0 1-3.709-2.469 4.74 4.74 0 0 1-.032-4.455l256.792-492.402a4.75 4.75 0 0 1 4.549-2.542l527.252 37.384c1.33.095 2.57.747 3.39 1.797l51.43 65.199 338.89 25.181 99.41-52.797 92.6-249.517-53.44-56.625z" clip-rule="evenodd"/><path fill="#2CE7C5" d="M2029.83 103.552 822.256 37.817 725.101 85.53l-572.732 991.94 36.216 77.95 1374.755 166.77 117.77-65.82 212.84-573.533-58.43-71.401-346.74-28.402-109.59 57.744-50.03 112.738 53.28 75.557-30.06 69.565-641.368-63.927L967.805 342.31l527.255 37.384 52.71 66.84 342.35 25.437 102.22-54.288 94.25-253.98z"/><path fill="#F6FCFB" fill-rule="evenodd" d="m967.805 342.31 527.255 37.384 52.71 66.84 342.35 25.437 102.22-54.288 94.25-253.98-56.76-60.151L822.256 37.817 725.101 85.53l-572.732 991.94 36.216 77.95 1374.755 166.77 117.77-65.82 212.84-573.533-58.43-71.401-346.74-28.402-109.59 57.744-50.03 112.738 53.28 75.557-30.06 69.565-641.368-63.927zm412.085 406.204 53.12 75.324-52.78 122.138-738.849-73.642 300.553-576.313 575.806 40.827 52.77 66.911 310.12 23.042 76.01-40.366 78.8-212.333-25.7-27.235L819.447 81.215l-59.523 31.836-557.408 965.929 15.892 35.39 1335.922 162.06 90.89-50.8 198.31-534.386-30.4-37.151-315.1-25.81-84.55 44.551z" clip-rule="evenodd"/><path fill="#35008C" fill-rule="evenodd" d="M1483.7 545.946c.8-.418 1.69-.602 2.59-.53l63.72 5.105 189.43 15.185 31.57 2.527 94.72 7.592c1.28.103 2.46.718 3.28 1.705l36.05 43.516 40.42 48.78c.42.506.73 1.093.91 1.724l2.9 10.135 8.72 30.448 26.16 91.349 8.72 30.451 34.87 121.797-9.13 2.616-8.72-30.448-17.44-60.902-26.16-91.346-26.16-91.349-2.62-9.179-19.57-23.622-40.42-48.78-14.57-17.583-92.71-7.432-31.58-2.528-189.43-15.184-62.35-4.996-26.82 14.095-28.04 14.734-56.07 29.466-27.34 14.365-38.28 85.172-22.81 50.732 33.97 64.151 11.88 22.448-8.4 4.445-17.29-32.664-29.64-55.986a4.7 4.7 0 0 1-.55-2.069c-.03-.723.11-1.442.41-2.102l10.78-23.961 12.98-28.889 25.97-57.779 12.99-28.89a4.7 4.7 0 0 1 2.12-2.257l28.79-15.127 56.07-29.466 28.04-14.735z" clip-rule="evenodd"/><path fill="#35008C" fill-rule="evenodd" d="m1278.36 766.445 7.8-5.424 18.08 26.003 18.09 26.004 10.66 15.329 5.79 8.327-7.8 5.427-16.45-23.658zm964.08-153.761c5.82 1.901 9 8.161 7.1 13.98L1923.07 1625.9l-21.08-6.89 326.47-999.231c1.9-5.82 8.16-8.996 13.98-7.095" clip-rule="evenodd"/><path fill="#35008C" fill-rule="evenodd" d="M464.837 1541.41c.858-6.06 6.467-10.28 12.529-9.43l1261.314 178.41 168.29-97.53c2.67-1.55 5.87-1.91 8.82-1s5.39 3.01 6.73 5.79l150.32 312.82c2.65 5.52.33 12.14-5.19 14.8-5.52 2.65-12.14.32-14.79-5.2l-145.14-302.02-161.24 93.45a11.1 11.1 0 0 1-7.11 1.38L474.261 1553.94c-6.062-.86-10.281-6.47-9.424-12.53" clip-rule="evenodd"/></g></g><defs><linearGradient id="d" x1="920.185" x2="852.528" y1="1471.28" y2="2330.03" gradientUnits="userSpaceOnUse"><stop stop-color="#FFA235" stop-opacity=".271"/><stop offset="1" stop-color="#FE900F"/></linearGradient><linearGradient id="e" x1="920.184" x2="852.528" y1="1471.28" y2="2330.03" gradientUnits="userSpaceOnUse"><stop stop-color="#FFA235" stop-opacity=".271"/><stop offset="1" stop-color="#FE900F"/></linearGradient><linearGradient id="f" x1="920.184" x2="852.526" y1="1471.28" y2="2330.03" gradientUnits="userSpaceOnUse"><stop stop-color="#FFA235" stop-opacity=".271"/><stop offset="1" stop-color="#FE900F"/></linearGradient><linearGradient id="g" x1="920.184" x2="852.527" y1="1471.28" y2="2330.03" gradientUnits="userSpaceOnUse"><stop stop-color="#FFA235" stop-opacity=".271"/><stop offset="1" stop-color="#FE900F"/></linearGradient><linearGradient id="h" x1="920.185" x2="852.528" y1="1471.28" y2="2330.03" gradientUnits="userSpaceOnUse"><stop stop-color="#FFA235" stop-opacity=".271"/><stop offset="1" stop-color="#FE900F"/></linearGradient><linearGradient id="i" x1="920.185" x2="852.528" y1="1471.28" y2="2330.03" gradientUnits="userSpaceOnUse"><stop stop-color="#FFA235" stop-opacity=".271"/><stop offset="1" stop-color="#FE900F"/></linearGradient><linearGradient id="j" x1="920.185" x2="852.528" y1="1471.28" y2="2330.03" gradientUnits="userSpaceOnUse"><stop stop-color="#FFA235" stop-opacity=".271"/><stop offset="1" stop-color="#FE900F"/></linearGradient><linearGradient id="k" x1="920.184" x2="852.527" y1="1471.28" y2="2330.03" gradientUnits="userSpaceOnUse"><stop stop-color="#FFA235" stop-opacity=".271"/><stop offset="1" stop-color="#FE900F"/></linearGradient><linearGradient id="l" x1="920.185" x2="852.528" y1="1471.28" y2="2330.03" gradientUnits="userSpaceOnUse"><stop stop-color="#FFA235" stop-opacity=".271"/><stop offset="1" stop-color="#FE900F"/></linearGradient><linearGradient id="m" x1="920.185" x2="852.528" y1="1471.28" y2="2330.03" gradientUnits="userSpaceOnUse"><stop stop-color="#FFA235" stop-opacity=".271"/><stop offset="1" stop-color="#FE900F"/></linearGradient><linearGradient id="n" x1="920.184" x2="852.527" y1="1471.28" y2="2330.03" gradientUnits="userSpaceOnUse"><stop stop-color="#FFA235" stop-opacity=".271"/><stop offset="1" stop-color="#FE900F"/></linearGradient><linearGradient id="o" x1="920.184" x2="852.529" y1="1471.28" y2="2330.03" gradientUnits="userSpaceOnUse"><stop stop-color="#FFA235" stop-opacity=".271"/><stop offset="1" stop-color="#FE900F"/></linearGradient><linearGradient id="p" x1="920.184" x2="852.528" y1="1471.28" y2="2330.03" gradientUnits="userSpaceOnUse"><stop stop-color="#FFA235" stop-opacity=".271"/><stop offset="1" stop-color="#FE900F"/></linearGradient><linearGradient id="q" x1="920.185" x2="852.528" y1="1471.28" y2="2330.03" gradientUnits="userSpaceOnUse"><stop stop-color="#FFA235" stop-opacity=".271"/><stop offset="1" stop-color="#FE900F"/></linearGradient><linearGradient id="r" x1="920.185" x2="852.528" y1="1471.28" y2="2330.03" gradientUnits="userSpaceOnUse"><stop stop-color="#FFA235" stop-opacity=".271"/><stop offset="1" stop-color="#FE900F"/></linearGradient><linearGradient id="s" x1="920.185" x2="852.528" y1="1471.28" y2="2330.03" gradientUnits="userSpaceOnUse"><stop stop-color="#FFA235" stop-opacity=".271"/><stop offset="1" stop-color="#FE900F"/></linearGradient><linearGradient id="t" x1="920.185" x2="852.528" y1="1471.28" y2="2330.03" gradientUnits="userSpaceOnUse"><stop stop-color="#FFA235" stop-opacity=".271"/><stop offset="1" stop-color="#FE900F"/></linearGradient><linearGradient id="u" x1="920.184" x2="852.527" y1="1471.28" y2="2330.03" gradientUnits="userSpaceOnUse"><stop stop-color="#FFA235" stop-opacity=".271"/><stop offset="1" stop-color="#FE900F"/></linearGradient><linearGradient id="v" x1="920.184" x2="852.529" y1="1471.28" y2="2330.03" gradientUnits="userSpaceOnUse"><stop stop-color="#FFA235" stop-opacity=".271"/><stop offset="1" stop-color="#FE900F"/></linearGradient><linearGradient id="w" x1="920.184" x2="852.529" y1="1471.28" y2="2330.03" gradientUnits="userSpaceOnUse"><stop stop-color="#FFA235" stop-opacity=".271"/><stop offset="1" stop-color="#FE900F"/></linearGradient><linearGradient id="x" x1="920.185" x2="852.528" y1="1471.28" y2="2330.03" gradientUnits="userSpaceOnUse"><stop stop-color="#FFA235" stop-opacity=".271"/><stop offset="1" stop-color="#FE900F"/></linearGradient><linearGradient id="y" x1="920.184" x2="852.527" y1="1471.28" y2="2330.03" gradientUnits="userSpaceOnUse"><stop stop-color="#FFA235" stop-opacity=".271"/><stop offset="1" stop-color="#FE900F"/></linearGradient><linearGradient id="z" x1="920.184" x2="852.527" y1="1471.28" y2="2330.03" gradientUnits="userSpaceOnUse"><stop stop-color="#FFA235" stop-opacity=".271"/><stop offset="1" stop-color="#FE900F"/></linearGradient><linearGradient id="A" x1="920.184" x2="852.527" y1="1471.28" y2="2330.03" gradientUnits="userSpaceOnUse"><stop stop-color="#FFA235" stop-opacity=".271"/><stop offset="1" stop-color="#FE900F"/></linearGradient><linearGradient id="B" x1="920.184" x2="852.527" y1="1471.28" y2="2330.03" gradientUnits="userSpaceOnUse"><stop stop-color="#FFA235" stop-opacity=".271"/><stop offset="1" stop-color="#FE900F"/></linearGradient><linearGradient id="C" x1="920.185" x2="852.527" y1="1471.28" y2="2330.03" gradientUnits="userSpaceOnUse"><stop stop-color="#FFA235" stop-opacity=".271"/><stop offset="1" stop-color="#FE900F"/></linearGradient><linearGradient id="D" x1="920.185" x2="852.528" y1="1471.28" y2="2330.03" gradientUnits="userSpaceOnUse"><stop stop-color="#FFA235" stop-opacity=".271"/><stop offset="1" stop-color="#FE900F"/></linearGradient><linearGradient id="E" x1="920.184" x2="852.527" y1="1471.28" y2="2330.03" gradientUnits="userSpaceOnUse"><stop stop-color="#FFA235" stop-opacity=".271"/><stop offset="1" stop-color="#FE900F"/></linearGradient><linearGradient id="F" x1="920.185" x2="852.528" y1="1471.28" y2="2330.03" gradientUnits="userSpaceOnUse"><stop stop-color="#FFA235" stop-opacity=".271"/><stop offset="1" stop-color="#FE900F"/></linearGradient><linearGradient id="G" x1="920.184" x2="852.527" y1="1471.28" y2="2330.03" gradientUnits="userSpaceOnUse"><stop stop-color="#FFA235" stop-opacity=".271"/><stop offset="1" stop-color="#FE900F"/></linearGradient><linearGradient id="H" x1="920.184" x2="852.527" y1="1471.28" y2="2330.03" gradientUnits="userSpaceOnUse"><stop stop-color="#FFA235" stop-opacity=".271"/><stop offset="1" stop-color="#FE900F"/></linearGradient><linearGradient id="I" x1="920.184" x2="852.528" y1="1471.28" y2="2330.03" gradientUnits="userSpaceOnUse"><stop stop-color="#FFA235" stop-opacity=".271"/><stop offset="1" stop-color="#FE900F"/></linearGradient><linearGradient id="J" x1="920.184" x2="852.527" y1="1471.28" y2="2330.03" gradientUnits="userSpaceOnUse"><stop stop-color="#FFA235" stop-opacity=".271"/><stop offset="1" stop-color="#FE900F"/></linearGradient><linearGradient id="K" x1="920.185" x2="852.528" y1="1471.28" y2="2330.03" gradientUnits="userSpaceOnUse"><stop stop-color="#FFA235" stop-opacity=".271"/><stop offset="1" stop-color="#FE900F"/></linearGradient><linearGradient id="L" x1="920.185" x2="852.528" y1="1471.28" y2="2330.03" gradientUnits="userSpaceOnUse"><stop stop-color="#FFA235" stop-opacity=".271"/><stop offset="1" stop-color="#FE900F"/></linearGradient><linearGradient id="M" x1="920.185" x2="852.528" y1="1471.28" y2="2330.03" gradientUnits="userSpaceOnUse"><stop stop-color="#FFA235" stop-opacity=".271"/><stop offset="1" stop-color="#FE900F"/></linearGradient><linearGradient id="N" x1="920.185" x2="852.528" y1="1471.28" y2="2330.03" gradientUnits="userSpaceOnUse"><stop stop-color="#FFA235" stop-opacity=".271"/><stop offset="1" stop-color="#FE900F"/></linearGradient><linearGradient id="O" x1="920.184" x2="852.529" y1="1471.28" y2="2330.03" gradientUnits="userSpaceOnUse"><stop stop-color="#FFA235" stop-opacity=".271"/><stop offset="1" stop-color="#FE900F"/></linearGradient><linearGradient id="P" x1="920.185" x2="852.528" y1="1471.28" y2="2330.03" gradientUnits="userSpaceOnUse"><stop stop-color="#FFA235" stop-opacity=".271"/><stop offset="1" stop-color="#FE900F"/></linearGradient><linearGradient id="Q" x1="920.184" x2="852.527" y1="1471.28" y2="2330.03" gradientUnits="userSpaceOnUse"><stop stop-color="#FFA235" stop-opacity=".271"/><stop offset="1" stop-color="#FE900F"/></linearGradient><linearGradient id="R" x1="920.184" x2="852.527" y1="1471.28" y2="2330.03" gradientUnits="userSpaceOnUse"><stop stop-color="#FFA235" stop-opacity=".271"/><stop offset="1" stop-color="#FE900F"/></linearGradient><linearGradient id="S" x1="920.185" x2="852.528" y1="1471.28" y2="2330.03" gradientUnits="userSpaceOnUse"><stop stop-color="#FFA235" stop-opacity=".271"/><stop offset="1" stop-color="#FE900F"/></linearGradient><linearGradient id="T" x1="920.185" x2="852.528" y1="1471.28" y2="2330.03" gradientUnits="userSpaceOnUse"><stop stop-color="#FFA235" stop-opacity=".271"/><stop offset="1" stop-color="#FE900F"/></linearGradient><linearGradient id="U" x1="920.184" x2="852.527" y1="1471.28" y2="2330.03" gradientUnits="userSpaceOnUse"><stop stop-color="#FFA235" stop-opacity=".271"/><stop offset="1" stop-color="#FE900F"/></linearGradient><linearGradient id="V" x1="920.185" x2="852.528" y1="1471.28" y2="2330.03" gradientUnits="userSpaceOnUse"><stop stop-color="#FFA235" stop-opacity=".271"/><stop offset="1" stop-color="#FE900F"/></linearGradient><linearGradient id="W" x1="920.185" x2="852.528" y1="1471.28" y2="2330.03" gradientUnits="userSpaceOnUse"><stop stop-color="#FFA235" stop-opacity=".271"/><stop offset="1" stop-color="#FE900F"/></linearGradient><linearGradient id="X" x1="920.184" x2="852.527" y1="1471.28" y2="2330.03" gradientUnits="userSpaceOnUse"><stop stop-color="#FFA235" stop-opacity=".271"/><stop offset="1" stop-color="#FE900F"/></linearGradient><linearGradient id="Y" x1="920.185" x2="852.528" y1="1471.28" y2="2330.03" gradientUnits="userSpaceOnUse"><stop stop-color="#FFA235" stop-opacity=".271"/><stop offset="1" stop-color="#FE900F"/></linearGradient><linearGradient id="Z" x1="920.184" x2="852.529" y1="1471.28" y2="2330.03" gradientUnits="userSpaceOnUse"><stop stop-color="#FFA235" stop-opacity=".271"/><stop offset="1" stop-color="#FE900F"/></linearGradient><linearGradient id="aa" x1="920.184" x2="852.529" y1="1471.28" y2="2330.03" gradientUnits="userSpaceOnUse"><stop stop-color="#FFA235" stop-opacity=".271"/><stop offset="1" stop-color="#FE900F"/></linearGradient><linearGradient id="ab" x1="920.184" x2="852.527" y1="1471.28" y2="2330.03" gradientUnits="userSpaceOnUse"><stop stop-color="#FFA235" stop-opacity=".271"/><stop offset="1" stop-color="#FE900F"/></linearGradient><linearGradient id="ac" x1="920.185" x2="852.528" y1="1471.28" y2="2330.03" gradientUnits="userSpaceOnUse"><stop stop-color="#FFA235" stop-opacity=".271"/><stop offset="1" stop-color="#FE900F"/></linearGradient><linearGradient id="ad" x1="920.184" x2="852.527" y1="1471.28" y2="2330.03" gradientUnits="userSpaceOnUse"><stop stop-color="#FFA235" stop-opacity=".271"/><stop offset="1" stop-color="#FE900F"/></linearGradient><linearGradient id="ae" x1="920.185" x2="852.528" y1="1471.28" y2="2330.03" gradientUnits="userSpaceOnUse"><stop stop-color="#FFA235" stop-opacity=".271"/><stop offset="1" stop-color="#FE900F"/></linearGradient><linearGradient id="af" x1="920.184" x2="852.527" y1="1471.28" y2="2330.03" gradientUnits="userSpaceOnUse"><stop stop-color="#FFA235" stop-opacity=".271"/><stop offset="1" stop-color="#FE900F"/></linearGradient><linearGradient id="ag" x1="920.185" x2="852.528" y1="1471.28" y2="2330.03" gradientUnits="userSpaceOnUse"><stop stop-color="#FFA235" stop-opacity=".271"/><stop offset="1" stop-color="#FE900F"/></linearGradient><linearGradient id="ah" x1="920.184" x2="852.527" y1="1471.28" y2="2330.03" gradientUnits="userSpaceOnUse"><stop stop-color="#FFA235" stop-opacity=".271"/><stop offset="1" stop-color="#FE900F"/></linearGradient><linearGradient id="ai" x1="920.185" x2="852.528" y1="1471.28" y2="2330.03" gradientUnits="userSpaceOnUse"><stop stop-color="#FFA235" stop-opacity=".271"/><stop offset="1" stop-color="#FE900F"/></linearGradient><linearGradient id="aj" x1="920.185" x2="852.528" y1="1471.28" y2="2330.03" gradientUnits="userSpaceOnUse"><stop stop-color="#FFA235" stop-opacity=".271"/><stop offset="1" stop-color="#FE900F"/></linearGradient><linearGradient id="ak" x1="920.184" x2="852.529" y1="1471.28" y2="2330.03" gradientUnits="userSpaceOnUse"><stop stop-color="#FFA235" stop-opacity=".271"/><stop offset="1" stop-color="#FE900F"/></linearGradient><linearGradient id="al" x1="920.185" x2="852.528" y1="1471.28" y2="2330.03" gradientUnits="userSpaceOnUse"><stop stop-color="#FFA235" stop-opacity=".271"/><stop offset="1" stop-color="#FE900F"/></linearGradient><linearGradient id="am" x1="920.184" x2="852.527" y1="1471.28" y2="2330.03" gradientUnits="userSpaceOnUse"><stop stop-color="#FFA235" stop-opacity=".271"/><stop offset="1" stop-color="#FE900F"/></linearGradient><linearGradient id="an" x1="920.184" x2="852.527" y1="1471.28" y2="2330.03" gradientUnits="userSpaceOnUse"><stop stop-color="#FFA235" stop-opacity=".271"/><stop offset="1" stop-color="#FE900F"/></linearGradient><linearGradient id="ao" x1="920.185" x2="852.528" y1="1471.28" y2="2330.03" gradientUnits="userSpaceOnUse"><stop stop-color="#FFA235" stop-opacity=".271"/><stop offset="1" stop-color="#FE900F"/></linearGradient><linearGradient id="ap" x1="920.185" x2="852.528" y1="1471.28" y2="2330.03" gradientUnits="userSpaceOnUse"><stop stop-color="#FFA235" stop-opacity=".271"/><stop offset="1" stop-color="#FE900F"/></linearGradient><linearGradient id="aq" x1="920.185" x2="852.528" y1="1471.28" y2="2330.03" gradientUnits="userSpaceOnUse"><stop stop-color="#FFA235" stop-opacity=".271"/><stop offset="1" stop-color="#FE900F"/></linearGradient><linearGradient id="ar" x1="920.184" x2="852.527" y1="1471.28" y2="2330.03" gradientUnits="userSpaceOnUse"><stop stop-color="#FFA235" stop-opacity=".271"/><stop offset="1" stop-color="#FE900F"/></linearGradient><linearGradient id="as" x1="920.184" x2="852.527" y1="1471.28" y2="2330.03" gradientUnits="userSpaceOnUse"><stop stop-color="#FFA235" stop-opacity=".271"/><stop offset="1" stop-color="#FE900F"/></linearGradient><linearGradient id="at" x1="920.183" x2="852.526" y1="1471.28" y2="2330.03" gradientUnits="userSpaceOnUse"><stop stop-color="#FFA235" stop-opacity=".271"/><stop offset="1" stop-color="#FE900F"/></linearGradient><linearGradient id="au" x1="920.184" x2="852.527" y1="1471.28" y2="2330.03" gradientUnits="userSpaceOnUse"><stop stop-color="#FFA235" stop-opacity=".271"/><stop offset="1" stop-color="#FE900F"/></linearGradient><linearGradient id="av" x1="920.184" x2="852.527" y1="1471.28" y2="2330.03" gradientUnits="userSpaceOnUse"><stop stop-color="#FFA235" stop-opacity=".271"/><stop offset="1" stop-color="#FE900F"/></linearGradient><linearGradient id="aw" x1="920.185" x2="852.528" y1="1471.28" y2="2330.03" gradientUnits="userSpaceOnUse"><stop stop-color="#FFA235" stop-opacity=".271"/><stop offset="1" stop-color="#FE900F"/></linearGradient><linearGradient id="ax" x1="920.186" x2="852.527" y1="1471.28" y2="2330.03" gradientUnits="userSpaceOnUse"><stop stop-color="#FFA235" stop-opacity=".271"/><stop offset="1" stop-color="#FE900F"/></linearGradient><linearGradient id="ay" x1="920.183" x2="852.526" y1="1471.28" y2="2330.03" gradientUnits="userSpaceOnUse"><stop stop-color="#FFA235" stop-opacity=".271"/><stop offset="1" stop-color="#FE900F"/></linearGradient><linearGradient id="az" x1="920.184" x2="852.527" y1="1471.28" y2="2330.03" gradientUnits="userSpaceOnUse"><stop stop-color="#FFA235" stop-opacity=".271"/><stop offset="1" stop-color="#FE900F"/></linearGradient><linearGradient id="aA" x1="920.185" x2="852.528" y1="1471.28" y2="2330.03" gradientUnits="userSpaceOnUse"><stop stop-color="#FFA235" stop-opacity=".271"/><stop offset="1" stop-color="#FE900F"/></linearGradient><linearGradient id="aB" x1="920.184" x2="852.527" y1="1471.28" y2="2330.03" gradientUnits="userSpaceOnUse"><stop stop-color="#FFA235" stop-opacity=".271"/><stop offset="1" stop-color="#FE900F"/></linearGradient><linearGradient id="aC" x1="920.185" x2="852.526" y1="1471.28" y2="2330.03" gradientUnits="userSpaceOnUse"><stop stop-color="#FFA235" stop-opacity=".271"/><stop offset="1" stop-color="#FE900F"/></linearGradient><linearGradient id="aD" x1="920.184" x2="852.527" y1="1471.28" y2="2330.03" gradientUnits="userSpaceOnUse"><stop stop-color="#FFA235" stop-opacity=".271"/><stop offset="1" stop-color="#FE900F"/></linearGradient><linearGradient id="aE" x1="920.185" x2="852.528" y1="1471.28" y2="2330.03" gradientUnits="userSpaceOnUse"><stop stop-color="#FFA235" stop-opacity=".271"/><stop offset="1" stop-color="#FE900F"/></linearGradient><linearGradient id="aF" x1="920.184" x2="852.527" y1="1471.28" y2="2330.03" gradientUnits="userSpaceOnUse"><stop stop-color="#FFA235" stop-opacity=".271"/><stop offset="1" stop-color="#FE900F"/></linearGradient><linearGradient id="aG" x1="920.184" x2="852.527" y1="1471.28" y2="2330.03" gradientUnits="userSpaceOnUse"><stop stop-color="#FFA235" stop-opacity=".271"/><stop offset="1" stop-color="#FE900F"/></linearGradient><linearGradient id="aH" x1="920.183" x2="852.528" y1="1471.28" y2="2330.03" gradientUnits="userSpaceOnUse"><stop stop-color="#FFA235" stop-opacity=".271"/><stop offset="1" stop-color="#FE900F"/></linearGradient><linearGradient id="aI" x1="920.185" x2="852.528" y1="1471.28" y2="2330.03" gradientUnits="userSpaceOnUse"><stop stop-color="#FFA235" stop-opacity=".271"/><stop offset="1" stop-color="#FE900F"/></linearGradient><linearGradient id="aJ" x1="920.186" x2="852.529" y1="1471.28" y2="2330.03" gradientUnits="userSpaceOnUse"><stop stop-color="#FFA235" stop-opacity=".271"/><stop offset="1" stop-color="#FE900F"/></linearGradient><linearGradient id="aK" x1="920.185" x2="852.528" y1="1471.28" y2="2330.03" gradientUnits="userSpaceOnUse"><stop stop-color="#FFA235" stop-opacity=".271"/><stop offset="1" stop-color="#FE900F"/></linearGradient><linearGradient id="aL" x1="920.185" x2="852.526" y1="1471.28" y2="2330.03" gradientUnits="userSpaceOnUse"><stop stop-color="#FFA235" stop-opacity=".271"/><stop offset="1" stop-color="#FE900F"/></linearGradient><linearGradient id="aM" x1="920.184" x2="852.527" y1="1471.28" y2="2330.03" gradientUnits="userSpaceOnUse"><stop stop-color="#FFA235" stop-opacity=".271"/><stop offset="1" stop-color="#FE900F"/></linearGradient><linearGradient id="aN" x1="920.185" x2="852.528" y1="1471.28" y2="2330.03" gradientUnits="userSpaceOnUse"><stop stop-color="#FFA235" stop-opacity=".271"/><stop offset="1" stop-color="#FE900F"/></linearGradient><linearGradient id="aO" x1="920.186" x2="852.529" y1="1471.28" y2="2330.03" gradientUnits="userSpaceOnUse"><stop stop-color="#FFA235" stop-opacity=".271"/><stop offset="1" stop-color="#FE900F"/></linearGradient><linearGradient id="aP" x1="920.184" x2="852.527" y1="1471.28" y2="2330.03" gradientUnits="userSpaceOnUse"><stop stop-color="#FFA235" stop-opacity=".271"/><stop offset="1" stop-color="#FE900F"/></linearGradient><linearGradient id="aQ" x1="920.185" x2="852.528" y1="1471.28" y2="2330.03" gradientUnits="userSpaceOnUse"><stop stop-color="#FFA235" stop-opacity=".271"/><stop offset="1" stop-color="#FE900F"/></linearGradient><linearGradient id="aR" x1="920.186" x2="852.527" y1="1471.28" y2="2330.03" gradientUnits="userSpaceOnUse"><stop stop-color="#FFA235" stop-opacity=".271"/><stop offset="1" stop-color="#FE900F"/></linearGradient><linearGradient id="aS" x1="920.185" x2="852.528" y1="1471.28" y2="2330.03" gradientUnits="userSpaceOnUse"><stop stop-color="#FFA235" stop-opacity=".271"/><stop offset="1" stop-color="#FE900F"/></linearGradient><linearGradient id="aT" x1="920.183" x2="852.528" y1="1471.28" y2="2330.03" gradientUnits="userSpaceOnUse"><stop stop-color="#FFA235" stop-opacity=".271"/><stop offset="1" stop-color="#FE900F"/></linearGradient><linearGradient id="aU" x1="920.184" x2="852.527" y1="1471.28" y2="2330.03" gradientUnits="userSpaceOnUse"><stop stop-color="#FFA235" stop-opacity=".271"/><stop offset="1" stop-color="#FE900F"/></linearGradient><linearGradient id="aV" x1="920.184" x2="852.527" y1="1471.28" y2="2330.03" gradientUnits="userSpaceOnUse"><stop stop-color="#FFA235" stop-opacity=".271"/><stop offset="1" stop-color="#FE900F"/></linearGradient><linearGradient id="aW" x1="920.186" x2="852.529" y1="1471.28" y2="2330.03" gradientUnits="userSpaceOnUse"><stop stop-color="#FFA235" stop-opacity=".271"/><stop offset="1" stop-color="#FE900F"/></linearGradient><linearGradient id="aX" x1="920.185" x2="852.528" y1="1471.28" y2="2330.03" gradientUnits="userSpaceOnUse"><stop stop-color="#FFA235" stop-opacity=".271"/><stop offset="1" stop-color="#FE900F"/></linearGradient><linearGradient id="aY" x1="920.183" x2="852.526" y1="1471.28" y2="2330.03" gradientUnits="userSpaceOnUse"><stop stop-color="#FFA235" stop-opacity=".271"/><stop offset="1" stop-color="#FE900F"/></linearGradient><linearGradient id="aZ" x1="920.184" x2="852.527" y1="1471.28" y2="2330.03" gradientUnits="userSpaceOnUse"><stop stop-color="#FFA235" stop-opacity=".271"/><stop offset="1" stop-color="#FE900F"/></linearGradient><linearGradient id="ba" x1="920.185" x2="852.528" y1="1471.28" y2="2330.03" gradientUnits="userSpaceOnUse"><stop stop-color="#FFA235" stop-opacity=".271"/><stop offset="1" stop-color="#FE900F"/></linearGradient><linearGradient id="bb" x1="920.186" x2="852.529" y1="1471.28" y2="2330.03" gradientUnits="userSpaceOnUse"><stop stop-color="#FFA235" stop-opacity=".271"/><stop offset="1" stop-color="#FE900F"/></linearGradient><linearGradient id="bc" x1="920.186" x2="852.529" y1="1471.28" y2="2330.03" gradientUnits="userSpaceOnUse"><stop stop-color="#FFA235" stop-opacity=".271"/><stop offset="1" stop-color="#FE900F"/></linearGradient><linearGradient id="bd" x1="920.185" x2="852.528" y1="1471.28" y2="2330.03" gradientUnits="userSpaceOnUse"><stop stop-color="#FFA235" stop-opacity=".271"/><stop offset="1" stop-color="#FE900F"/></linearGradient><linearGradient id="be" x1="920.185" x2="852.528" y1="1471.28" y2="2330.03" gradientUnits="userSpaceOnUse"><stop stop-color="#FFA235" stop-opacity=".271"/><stop offset="1" stop-color="#FE900F"/></linearGradient><linearGradient id="bf" x1="920.184" x2="852.527" y1="1471.28" y2="2330.03" gradientUnits="userSpaceOnUse"><stop stop-color="#FFA235" stop-opacity=".271"/><stop offset="1" stop-color="#FE900F"/></linearGradient><linearGradient id="bg" x1="920.183" x2="852.528" y1="1471.28" y2="2330.03" gradientUnits="userSpaceOnUse"><stop stop-color="#FFA235" stop-opacity=".271"/><stop offset="1" stop-color="#FE900F"/></linearGradient><linearGradient id="bh" x1="920.186" x2="852.529" y1="1471.28" y2="2330.03" gradientUnits="userSpaceOnUse"><stop stop-color="#FFA235" stop-opacity=".271"/><stop offset="1" stop-color="#FE900F"/></linearGradient><linearGradient id="bi" x1="920.184" x2="852.527" y1="1471.28" y2="2330.03" gradientUnits="userSpaceOnUse"><stop stop-color="#FFA235" stop-opacity=".271"/><stop offset="1" stop-color="#FE900F"/></linearGradient><linearGradient id="bj" x1="920.185" x2="852.528" y1="1471.28" y2="2330.03" gradientUnits="userSpaceOnUse"><stop stop-color="#FFA235" stop-opacity=".271"/><stop offset="1" stop-color="#FE900F"/></linearGradient><linearGradient id="bk" x1="920.183" x2="852.526" y1="1471.28" y2="2330.03" gradientUnits="userSpaceOnUse"><stop stop-color="#FFA235" stop-opacity=".271"/><stop offset="1" stop-color="#FE900F"/></linearGradient><linearGradient id="bl" x1="920.186" x2="852.529" y1="1471.28" y2="2330.03" gradientUnits="userSpaceOnUse"><stop stop-color="#FFA235" stop-opacity=".271"/><stop offset="1" stop-color="#FE900F"/></linearGradient><linearGradient id="bm" x1="920.185" x2="852.528" y1="1471.28" y2="2330.03" gradientUnits="userSpaceOnUse"><stop stop-color="#FFA235" stop-opacity=".271"/><stop offset="1" stop-color="#FE900F"/></linearGradient><linearGradient id="bn" x1="920.184" x2="852.527" y1="1471.28" y2="2330.03" gradientUnits="userSpaceOnUse"><stop stop-color="#FFA235" stop-opacity=".271"/><stop offset="1" stop-color="#FE900F"/></linearGradient><linearGradient id="bo" x1="920.185" x2="852.528" y1="1471.28" y2="2330.03" gradientUnits="userSpaceOnUse"><stop stop-color="#FFA235" stop-opacity=".271"/><stop offset="1" stop-color="#FE900F"/></linearGradient><linearGradient id="bp" x1="920.183" x2="852.526" y1="1471.28" y2="2330.03" gradientUnits="userSpaceOnUse"><stop stop-color="#FFA235" stop-opacity=".271"/><stop offset="1" stop-color="#FE900F"/></linearGradient><linearGradient id="bq" x1="920.184" x2="852.527" y1="1471.28" y2="2330.03" gradientUnits="userSpaceOnUse"><stop stop-color="#FFA235" stop-opacity=".271"/><stop offset="1" stop-color="#FE900F"/></linearGradient><linearGradient id="br" x1="920.185" x2="852.528" y1="1471.28" y2="2330.03" gradientUnits="userSpaceOnUse"><stop stop-color="#FFA235" stop-opacity=".271"/><stop offset="1" stop-color="#FE900F"/></linearGradient><linearGradient id="bs" x1="920.183" x2="852.526" y1="1471.28" y2="2330.03" gradientUnits="userSpaceOnUse"><stop stop-color="#FFA235" stop-opacity=".271"/><stop offset="1" stop-color="#FE900F"/></linearGradient><linearGradient id="bt" x1="920.184" x2="852.527" y1="1471.28" y2="2330.03" gradientUnits="userSpaceOnUse"><stop stop-color="#FFA235" stop-opacity=".271"/><stop offset="1" stop-color="#FE900F"/></linearGradient><linearGradient id="bu" x1="920.185" x2="852.528" y1="1471.28" y2="2330.03" gradientUnits="userSpaceOnUse"><stop stop-color="#FFA235" stop-opacity=".271"/><stop offset="1" stop-color="#FE900F"/></linearGradient><linearGradient id="bv" x1="920.184" x2="852.527" y1="1471.28" y2="2330.03" gradientUnits="userSpaceOnUse"><stop stop-color="#FFA235" stop-opacity=".271"/><stop offset="1" stop-color="#FE900F"/></linearGradient><linearGradient id="bw" x1="920.184" x2="852.527" y1="1471.28" y2="2330.03" gradientUnits="userSpaceOnUse"><stop stop-color="#FFA235" stop-opacity=".271"/><stop offset="1" stop-color="#FE900F"/></linearGradient><linearGradient id="bx" x1="920.185" x2="852.526" y1="1471.28" y2="2330.03" gradientUnits="userSpaceOnUse"><stop stop-color="#FFA235" stop-opacity=".271"/><stop offset="1" stop-color="#FE900F"/></linearGradient><linearGradient id="by" x1="920.185" x2="852.528" y1="1471.28" y2="2330.03" gradientUnits="userSpaceOnUse"><stop stop-color="#FFA235" stop-opacity=".271"/><stop offset="1" stop-color="#FE900F"/></linearGradient><linearGradient id="bz" x1="920.186" x2="852.529" y1="1471.28" y2="2330.03" gradientUnits="userSpaceOnUse"><stop stop-color="#FFA235" stop-opacity=".271"/><stop offset="1" stop-color="#FE900F"/></linearGradient><linearGradient id="bA" x1="920.183" x2="852.526" y1="1471.28" y2="2330.03" gradientUnits="userSpaceOnUse"><stop stop-color="#FFA235" stop-opacity=".271"/><stop offset="1" stop-color="#FE900F"/></linearGradient><linearGradient id="bB" x1="920.184" x2="852.527" y1="1471.28" y2="2330.03" gradientUnits="userSpaceOnUse"><stop stop-color="#FFA235" stop-opacity=".271"/><stop offset="1" stop-color="#FE900F"/></linearGradient><linearGradient id="bC" x1="920.185" x2="852.528" y1="1471.28" y2="2330.03" gradientUnits="userSpaceOnUse"><stop stop-color="#FFA235" stop-opacity=".271"/><stop offset="1" stop-color="#FE900F"/></linearGradient><linearGradient id="bD" x1="920.183" x2="852.528" y1="1471.28" y2="2330.03" gradientUnits="userSpaceOnUse"><stop stop-color="#FFA235" stop-opacity=".271"/><stop offset="1" stop-color="#FE900F"/></linearGradient><linearGradient id="bE" x1="920.186" x2="852.527" y1="1471.28" y2="2330.03" gradientUnits="userSpaceOnUse"><stop stop-color="#FFA235" stop-opacity=".271"/><stop offset="1" stop-color="#FE900F"/></linearGradient><linearGradient id="bF" x1="920.185" x2="852.528" y1="1471.28" y2="2330.03" gradientUnits="userSpaceOnUse"><stop stop-color="#FFA235" stop-opacity=".271"/><stop offset="1" stop-color="#FE900F"/></linearGradient><linearGradient id="bG" x1="920.184" x2="852.527" y1="1471.28" y2="2330.03" gradientUnits="userSpaceOnUse"><stop stop-color="#FFA235" stop-opacity=".271"/><stop offset="1" stop-color="#FE900F"/></linearGradient><linearGradient id="bH" x1="920.185" x2="852.527" y1="1471.28" y2="2330.03" gradientUnits="userSpaceOnUse"><stop stop-color="#FFA235" stop-opacity=".271"/><stop offset="1" stop-color="#FE900F"/></linearGradient><linearGradient id="bI" x1="920.185" x2="852.526" y1="1471.28" y2="2330.03" gradientUnits="userSpaceOnUse"><stop stop-color="#FFA235" stop-opacity=".271"/><stop offset="1" stop-color="#FE900F"/></linearGradient><linearGradient id="bJ" x1="920.186" x2="852.529" y1="1471.28" y2="2330.03" gradientUnits="userSpaceOnUse"><stop stop-color="#FFA235" stop-opacity=".271"/><stop offset="1" stop-color="#FE900F"/></linearGradient><linearGradient id="bK" x1="920.187" x2="852.53" y1="1471.28" y2="2330.03" gradientUnits="userSpaceOnUse"><stop stop-color="#FFA235" stop-opacity=".271"/><stop offset="1" stop-color="#FE900F"/></linearGradient><linearGradient id="bL" x1="920.184" x2="852.527" y1="1471.28" y2="2330.03" gradientUnits="userSpaceOnUse"><stop stop-color="#FFA235" stop-opacity=".271"/><stop offset="1" stop-color="#FE900F"/></linearGradient><linearGradient id="bM" x1="920.184" x2="852.527" y1="1471.28" y2="2330.03" gradientUnits="userSpaceOnUse"><stop stop-color="#FFA235" stop-opacity=".271"/><stop offset="1" stop-color="#FE900F"/></linearGradient><linearGradient id="bN" x1="920.183" x2="852.526" y1="1471.28" y2="2330.03" gradientUnits="userSpaceOnUse"><stop stop-color="#FFA235" stop-opacity=".271"/><stop offset="1" stop-color="#FE900F"/></linearGradient><linearGradient id="bO" x1="920.186" x2="852.529" y1="1471.28" y2="2330.03" gradientUnits="userSpaceOnUse"><stop stop-color="#FFA235" stop-opacity=".271"/><stop offset="1" stop-color="#FE900F"/></linearGradient><linearGradient id="bP" x1="920.185" x2="852.528" y1="1471.28" y2="2330.03" gradientUnits="userSpaceOnUse"><stop stop-color="#FFA235" stop-opacity=".271"/><stop offset="1" stop-color="#FE900F"/></linearGradient><linearGradient id="bQ" x1="920.185" x2="852.528" y1="1471.28" y2="2330.03" gradientUnits="userSpaceOnUse"><stop stop-color="#FFA235" stop-opacity=".271"/><stop offset="1" stop-color="#FE900F"/></linearGradient><linearGradient id="bR" x1="920.186" x2="852.529" y1="1471.28" y2="2330.03" gradientUnits="userSpaceOnUse"><stop stop-color="#FFA235" stop-opacity=".271"/><stop offset="1" stop-color="#FE900F"/></linearGradient><linearGradient id="bS" x1="920.183" x2="852.528" y1="1471.28" y2="2330.03" gradientUnits="userSpaceOnUse"><stop stop-color="#FFA235" stop-opacity=".271"/><stop offset="1" stop-color="#FE900F"/></linearGradient><linearGradient id="bT" x1="920.184" x2="852.527" y1="1471.28" y2="2330.03" gradientUnits="userSpaceOnUse"><stop stop-color="#FFA235" stop-opacity=".271"/><stop offset="1" stop-color="#FE900F"/></linearGradient><linearGradient id="bU" x1="920.185" x2="852.528" y1="1471.28" y2="2330.03" gradientUnits="userSpaceOnUse"><stop stop-color="#FFA235" stop-opacity=".271"/><stop offset="1" stop-color="#FE900F"/></linearGradient><linearGradient id="bV" x1="920.185" x2="852.528" y1="1471.28" y2="2330.03" gradientUnits="userSpaceOnUse"><stop stop-color="#FFA235" stop-opacity=".271"/><stop offset="1" stop-color="#FE900F"/></linearGradient><linearGradient id="bW" x1="920.185" x2="852.528" y1="1471.28" y2="2330.03" gradientUnits="userSpaceOnUse"><stop stop-color="#FFA235" stop-opacity=".271"/><stop offset="1" stop-color="#FE900F"/></linearGradient><linearGradient id="bX" x1="920.182" x2="852.525" y1="1471.28" y2="2330.03" gradientUnits="userSpaceOnUse"><stop stop-color="#FFA235" stop-opacity=".271"/><stop offset="1" stop-color="#FE900F"/></linearGradient><linearGradient id="bY" x1="920.183" x2="852.526" y1="1471.28" y2="2330.03" gradientUnits="userSpaceOnUse"><stop stop-color="#FFA235" stop-opacity=".271"/><stop offset="1" stop-color="#FE900F"/></linearGradient><linearGradient id="bZ" x1="920.183" x2="852.525" y1="1471.28" y2="2330.03" gradientUnits="userSpaceOnUse"><stop stop-color="#FFA235" stop-opacity=".271"/><stop offset="1" stop-color="#FE900F"/></linearGradient><linearGradient id="ca" x1="920.186" x2="852.529" y1="1471.28" y2="2330.03" gradientUnits="userSpaceOnUse"><stop stop-color="#FFA235" stop-opacity=".271"/><stop offset="1" stop-color="#FE900F"/></linearGradient><linearGradient id="cb" x1="920.187" x2="852.53" y1="1471.28" y2="2330.03" gradientUnits="userSpaceOnUse"><stop stop-color="#FFA235" stop-opacity=".271"/><stop offset="1" stop-color="#FE900F"/></linearGradient><linearGradient id="cc" x1="920.182" x2="852.525" y1="1471.28" y2="2330.03" gradientUnits="userSpaceOnUse"><stop stop-color="#FFA235" stop-opacity=".271"/><stop offset="1" stop-color="#FE900F"/></linearGradient><linearGradient id="cd" x1="920.186" x2="852.529" y1="1471.28" y2="2330.03" gradientUnits="userSpaceOnUse"><stop stop-color="#FFA235" stop-opacity=".271"/><stop offset="1" stop-color="#FE900F"/></linearGradient><linearGradient id="ce" x1="920.185" x2="852.528" y1="1471.28" y2="2330.03" gradientUnits="userSpaceOnUse"><stop stop-color="#FFA235" stop-opacity=".271"/><stop offset="1" stop-color="#FE900F"/></linearGradient><linearGradient id="cf" x1="920.184" x2="852.527" y1="1471.28" y2="2330.03" gradientUnits="userSpaceOnUse"><stop stop-color="#FFA235" stop-opacity=".271"/><stop offset="1" stop-color="#FE900F"/></linearGradient><linearGradient id="cg" x1="920.184" x2="852.527" y1="1471.28" y2="2330.03" gradientUnits="userSpaceOnUse"><stop stop-color="#FFA235" stop-opacity=".271"/><stop offset="1" stop-color="#FE900F"/></linearGradient><linearGradient id="ch" x1="920.183" x2="852.526" y1="1471.28" y2="2330.03" gradientUnits="userSpaceOnUse"><stop stop-color="#FFA235" stop-opacity=".271"/><stop offset="1" stop-color="#FE900F"/></linearGradient><linearGradient id="ci" x1="920.186" x2="852.529" y1="1471.28" y2="2330.03" gradientUnits="userSpaceOnUse"><stop stop-color="#FFA235" stop-opacity=".271"/><stop offset="1" stop-color="#FE900F"/></linearGradient><linearGradient id="cj" x1="920.187" x2="852.53" y1="1471.28" y2="2330.03" gradientUnits="userSpaceOnUse"><stop stop-color="#FFA235" stop-opacity=".271"/><stop offset="1" stop-color="#FE900F"/></linearGradient><clipPath id="a"><path fill="#fff" d="M94 0h2347v2535H94z"/></clipPath></defs></svg>