<svg xmlns="http://www.w3.org/2000/svg" width="24" height="25" fill="none"><path fill="#3D1192" stroke="#fff" stroke-width="3" d="m7.5 6.5.002 12.06v.052l.004.052.004.057.005.071.011.07.01.06.003.016.003.016.01.053.014.075.022.073.032.108.02.068.027.067.027.067.016.04.019.04.017.035.022.049.027.046.054.096.036.065.043.061.054.077.048.069.056.063.083.094.056.064.064.057.08.073.061.055.066.047.09.065.084.06.091.05.132.07.07.036.072.03.067.026.066.027.069.02.108.032.07.021.073.014.052.01.03.006.03.004.06.01.047.006.047.005.058.005.04.003.038.001.06.002.05.002.05-.002.06-.002h.027l.027-.003.057-.004.071-.005.07-.011.06-.01.016-.003.016-.003.053-.01.075-.014.073-.022.108-.032.069-.02.066-.027.067-.027.04-.016.04-.019.036-.017.048-.023.046-.026.096-.054.065-.036.061-.043.077-.054.069-.048.063-.056.094-.083.035-.03.033-.033 6-6 .033-.033.03-.035.083-.094.032-.036.03-.038a2.5 2.5 0 0 0-.208-3.3l-6-6-.027-.026-.028-.025-.084-.076-.031-.029-.033-.026C9.969 3.262 7.5 4.36 7.5 6.5Z"/></svg>