<svg xmlns="http://www.w3.org/2000/svg" width="415" height="256" fill="#fff" class="loading" style="animation:disappear ease 2500ms forwards infinite"><style><![CDATA[@keyframes l-1{0%{opacity:0}10%{opacity:1}}@keyframes l-2{0%,4%{opacity:0}14%{opacity:1}}@keyframes l-3{0%,8%{opacity:0}18%{opacity:1}}@keyframes l-4{0%,12%{opacity:0}22%{opacity:1}}@keyframes l-5{0%,16%{opacity:0}26%{opacity:1}}@keyframes l-6{0%,20%{opacity:0}30%{opacity:1}}@keyframes l-7{0%,24%{opacity:0}34%{opacity:1}}@keyframes l-8{0%,28%{opacity:0}38%{opacity:1}}@keyframes l-9{0%,32%{opacity:0}42%{opacity:1}}@keyframes l-10{0%,36%{opacity:0}46%{opacity:1}}@keyframes l-11{0%,40%{opacity:0}50%{opacity:1}}@keyframes l-12{0%{opacity:0}54%{opacity:0;transform:translateY(-20px)}64%{opacity:1;transform:translateY(5px)}}@keyframes disappear{80%{opacity:1}90%,to{opacity:0}}svg.loading>path{animation:var(--name) ease 2500ms forwards infinite}svg.loading>path:nth-child(1){--name:l-1}]]></style><path d="M194.447 67.444 142.305 35.22 199.29 0l15.634.002 47.11 29.116v9.423l-46.768 28.904z" class="load" style="--name:l-2"/><path d="M153.373 90.05 103.48 59.214l31.149-19.251 49.893 30.836z" style="--name:l-3"/><path d="M99.642 123.258 49.748 92.422l46.056-28.464 49.893 30.836z" style="--name:l-4"/><path d="m42.072 97.166 49.894 30.836-49.891 30.834L0 132.832v-9.664z" style="--name:l-5"/><path d="m49.751 163.58 49.89-30.834 46.056 28.464-49.89 30.834z" style="--name:l-6"/><path d="m149.539 225.252-46.056-28.464 49.89-30.834 46.056 28.464z" style="--name:l-7"/><path d="m157.214 229.996 49.891-30.834 49.894 30.836L214.927 256h-15.638z" style="--name:l-8"/><path d="m310.731 196.79-46.056 28.464-49.894-30.836 46.056-28.464z" style="--name:l-9"/><path d="m318.407 192.046-49.894-30.836 46.056-28.464 49.893 30.836z" style="--name:l-10"/><path d="m372.138 158.838-49.893-30.836 49.893-30.836 42.075 26.004.004 9.662z" style="--name:l-11"/><path d="m295.616 59.514 15.603.002 53.243 32.906-49.893 30.836-21.324-13.179h-25.316l-18.902-11.682-.002-10.088z" style="--name:l-12"/></svg>