<svg xmlns="http://www.w3.org/2000/svg" width="458" height="64" fill="none"><g fill="#fff" clip-path="url(#a)"><path d="m56.799 43.055-6.835 1.713a22.06 22.06 0 0 1-25.909 7.796l3.678-3.79A17.3 17.3 0 0 0 48.64 36.76l9.365 3.05a28 28 0 0 1-1.205 3.242m7.13-8.935q.068-1.056.07-2.113c0-2.11-.207-4.216-.62-6.286l-4.502 2.502a27 27 0 0 1 .212 5.503l-9.801-.86c0-.285.02-.574.02-.863A17.2 17.2 0 0 0 45.8 21.572l-.444.352a16.7 16.7 0 0 1 2.508 4.77l-.496.265c.536 1.631.81 3.338.81 5.055 0 .257 0 .514-.021.768l-8.065-.722a8 8 0 0 1-.225 1.821l7.694 2.53a16.206 16.206 0 0 1-15.575 11.777 16 16 0 0 1-3.358-.352l4.852-5-11.454-1.37-.86-10.836-9.59 9.663a22.05 22.05 0 0 1 7.145-25.884l.635-2.466A23.57 23.57 0 0 1 33.652 8.34l1.68 2.819a20.9 20.9 0 0 1 7.177 2.547l.944-.892a22.1 22.1 0 0 0-7.51-2.818l-1.699-2.857A28 28 0 0 0 32 7.046a24.85 24.85 0 0 0-12.211 3.17l.705-2.818a27 27 0 0 1 13.958-2.434l2.501-4.58a32.01 32.01 0 0 0-32.345 48.17l-3.322 14.41 14.705-3.252A32.013 32.013 0 0 0 62.62 41.318l2.251.737a34.4 34.4 0 0 0 1.41-7.75l-2.358-.202zM217.778 37.665h-30.879V20.98h19.834l11.045 8.808v7.888zm-44.091 13.201h-18.108l-8.04-7.775v-2.188h26.148zm9.963-33.117v19.923h-6.715v-6.729h-61.026v-6.849h-3.238V50.87H76.577V34.174h29.509v-3.23H76.577v-6.85H73.34V54.1h42.569V43.827l10.037-9.653h47.741v3.484h-29.375v16.435h32.623v-13.19h6.726V54.1h3.238V40.903h34.113v-23.16zM243.726 3.424h-10.788v58.772h10.788zM252.107 7.508v-2.27h9.304V3.425h4.535V5.24h9.3v2.269h-9.3v1.36h8.391v9.512h-5.636l6.538 4.989v4.548l-9.301-7.068v7.068h-4.527v-7.068l-9.301 7.068v-4.534l6.543-4.99h-5.637V8.883h8.395V7.508zm5.429 8.617h3.875v-1.36h-3.875zm12.25 0v-1.36h-3.844v1.36zm-12.25-4.989v1.36h3.875v-1.36zm12.25 0h-3.844v1.36h3.858zM278.266 7.959V5.693h8.864V3.424h4.534v2.27h8.846v2.265zm1.36 10.435V8.882h19.507v9.512h-7.487v5.443q0 4.08-3.628 4.08h-2.949V25.65q2.043 0 2.043-1.814v-5.443zm4.537-2.269h10.432v-4.989h-10.432zm-6.341 11.792 3.171-8.618h4.534l-3.171 8.618zm23.136 0h-4.549l-3.17-8.618h4.53l3.171 8.618zM304.425 6.144V3.875h21.318v2.266h-8.392v19.51h9.301v2.266h-23.136V25.65h9.301V6.144zM329.22 27.917v-3.629l7.786-4.08h-7.786V17.94h9.301v-.676h-7.941v-2.272h7.941v-.68h-8.847v-2.27h3.629l-.905-2.719h-2.724V7.046h1.815l-.909-3.629h4.312l.905 3.63h.455V3.423h4.308v3.622h.473V3.424h4.308v3.622h.455l.873-3.622h4.309l-.891 3.622h1.814v2.269h-2.723l-.906 2.72h3.629v2.269h-8.846v.68h7.937v2.279h-7.937v.68h9.301v2.269h-7.8l7.789 4.08v3.628l-9.29-4.88v4.877h-4.534V23.04zm14.279-15.875.905-2.72h-7.247l.909 2.72zM354.924 10.682V8.413h8.582l2.304-4.989h4.989l-2.286 4.99h9.561v2.268h-9.072l9.513 17.235H373.3l-7.525-13.606-6.31 13.606h-4.992l7.976-17.235zM381.083 13.388v-5.88h22.227v5.88h-4.538v-.666l-3.171 4.763h8.163v2.269h-8.617v3.629q0 4.533-3.629 4.534h-3.171V25.65q2.266 0 2.266-2.268v-3.63h-9.978v-2.268h9.978l2.114-3.17h-8.924v-.927zm1.36-6.342-1.36-3.629h4.08l1.363 3.63zm8.163 0-1.36-3.629h4.083l1.36 3.63zm11.341 0h-4.08l1.36-3.629h4.083zm-3.171 2.72h-13.155v2.269h13.155zM259.896 60.15h-7.257v-2.27h4.083q2.72 0 2.72-2.268v-9.978h-7.712v-2.269h16.329v2.27h-4.079v9.977q0 4.541-4.084 4.537m-6.803-21.319v-2.269h13.603v2.27zm15.308 2.819-1.814-1.966 1.814-2.001 1.814 2zm3.703 0-1.815-1.966 1.815-2.001 1.814 2zM287.147 60.15h-10.432v-2.27h7.047q2.948 0 2.948-2.268v-15.42h4.535v15.42q0 4.541-4.084 4.537zM275.81 38.83v-2.269h7.709v2.27zm0 6.342V42.91h7.709v2.269zm12.729-5.926-1.814-1.966 1.814-2.005 1.814 2.005zm3.706 0-1.814-1.966 1.814-2.005 1.815 2.005zM299.51 60.15v-2.27h2.269q2.723 0 2.719-2.72V46.09h-4.988q0 4.08-4.538 4.08h-2.265v-2.255h.451q1.816 0 1.814-1.815V35.653h4.538v2.27h9.512V55.16q0 4.988-3.629 4.988zm4.988-19.959h-4.988v3.629h4.988zM310.851 60.15l1.814-22.682h4.534l-1.814 22.681zm7.257 0V35.652h4.534V57.88h.455q1.813.002 1.814-2.268v-4.99h4.538v4.99q0 4.541-4.083 4.537zM331.64 42.006v-3.63l6.574-2.723 6.578 2.724v3.628l-4.309-1.761v1.761h3.854v8.456h-7.75v.623h7.75v9.072h-10.428v-1.814h-2.269l.906-16.33h3.403v-1.761l-4.309 1.762zm13.62 12.25V37.921h4.084v16.333zm2.724 5.897v-2.269h.447c1.208 0 1.814-.602 1.814-1.814V36.108h4.528v19.958q0 4.087-4.08 4.083zM336.04 40.195h4.383l-2.209-.913-2.191.91zm.945 4.083-.078.905h2.91v-.905zm-.191 3.023-.038.909h3.061v-.91zm1.663 10.569h1.36v-4.524h-1.36zM364.148 60.15h-4.535V47.786l-2.269 4.65V46.54l4.989-10.887h3.171l-1.36 2.798zm8.166 0h-4.538V45.633l-3.17 6.342v-8.61l3.628-7.713h4.534l-1.359 2.724h9.082v2.269h-8.163v3.628h7.709v2.266h-7.709v3.628h7.709v2.27h-7.709v7.711zM383.049 60.15V36.107h23.132v24.041h-4.534V38.377h-14.064v21.772zm5.443-18.144v-2.27h12.246v2.27zm.454 13.606V43.365h11.337v12.247zm4.08-2.266h3.171v-7.712h-3.171zM419.185 38.377v-2.27h11.795l-2.723 8.636h4.083v2.269h-4.538v8.617q0 4.541-3.629 4.538h-2.719v-2.269q1.813.002 1.814-2.269v-8.635h-4.538v-2.251h4.989l2.005-6.342zm-9.513 21.772V57.88h1.815q2.72 0 2.723-2.72v-.905l-5.443-1.36.352-12.246h-.792V38.38h.831l.074-2.723h4.083l-.074 2.723h5.063v14.628l1.363.352v2.266l-1.363-.353q-.038 4.88-3.629 4.876zm4.538-19.503h-1.021l-.304 10.999 1.325.352zM434.908 50.172v-2.258h22.227v2.268h-12.246l-3.523 7.709h9.6l-2.001-6.341h4.989l2.72 8.617h-21.319l4.535-9.977zm2.269-4.083v-2.27h17.689v2.27zm-2.723-1.815v-3.628l11.566-4.993 11.566 4.993v3.628l-11.566-4.992z"/></g><defs><clipPath id="a"><path fill="#fff" d="M0 0h457.59v64H0z"/></clipPath></defs></svg>