<svg width="1299" height="182" viewBox="0 0 1299 182" fill="none" xmlns="http://www.w3.org/2000/svg">
<g clip-path="url(#clip0_213_23)">
<path d="M161.22 122.21L141.82 127.07C133.76 138.402 122.157 146.727 108.841 150.734C95.5257 154.741 81.255 154.202 68.28 149.2L78.72 138.44C91.1037 141.596 104.23 139.8 115.31 133.432C126.391 127.065 134.552 116.629 138.06 104.34L164.64 113C163.693 116.135 162.551 119.208 161.22 122.2M181.46 96.84C181.587 94.84 181.653 92.84 181.66 90.84C181.658 84.8501 181.069 78.8748 179.9 73L167.12 80.1C167.626 83.671 167.88 87.2733 167.88 90.88C167.88 92.51 167.82 94.12 167.72 95.72L139.9 93.28C139.9 92.47 139.96 91.65 139.96 90.83C139.967 80.1395 136.468 69.7417 130 61.23L128.74 62.23C131.829 66.329 134.234 70.9016 135.86 75.77L134.45 76.52C135.972 81.1512 136.749 85.995 136.75 90.87C136.75 91.6 136.75 92.33 136.69 93.05L113.8 91C113.782 92.7419 113.567 94.4762 113.16 96.17L135 103.35C132.267 112.971 126.473 121.439 118.495 127.471C110.518 133.504 100.792 136.771 90.79 136.78C87.587 136.784 84.3925 136.449 81.26 135.78L95.03 121.59L62.52 117.7L60.08 86.94L32.86 114.37C27.6788 101.6 26.858 87.4761 30.525 74.1915C34.192 60.9069 42.1416 49.2043 53.14 40.9L54.94 33.9C65.673 27.0954 78.1218 23.488 90.83 23.5C92.41 23.5 93.97 23.56 95.52 23.67L100.29 31.67C107.465 32.8141 114.369 35.2647 120.66 38.9L123.34 36.37C116.78 32.4274 109.555 29.7163 102.02 28.37L97.2 20.26C95.0667 20.0867 92.9433 20 90.83 20C78.6948 19.9683 66.7567 23.0682 56.17 29L58.17 21C68.3789 16.2181 79.5167 13.7461 90.79 13.76C93.16 13.76 95.5 13.88 97.79 14.09L104.89 1.09C100.238 0.369265 95.5376 0.00487238 90.83 0C74.7329 0.00596292 58.9264 4.28825 45.0277 12.4087C31.129 20.5292 19.6371 32.1962 11.7279 46.2162C3.81864 60.2362 -0.224015 76.1057 0.013561 92.201C0.251137 108.296 4.76041 124.04 13.08 137.82L3.65001 178.72L45.39 169.49C57.235 176.327 70.4705 180.402 84.1099 181.412C97.7492 182.421 111.44 180.339 124.163 175.32C136.885 170.301 148.311 162.475 157.588 152.426C166.864 142.376 173.753 130.363 177.74 117.28L184.13 119.37C186.303 112.214 187.645 104.832 188.13 97.37L181.44 96.8L181.46 96.84Z" fill="#005BAC"/>
<path d="M618.15 106.91H530.5V59.55H586.8L618.15 84.55V106.94V106.91ZM493 144.38H441.6L418.78 122.31V116.1H493V144.38ZM521.28 50.38V106.93H502.22V87.83H329V68.39H319.81V144.39H217.36V97H301.12V87.83H217.36V68.39H208.17V153.56H329V124.4L357.49 97H493V106.89H409.62V153.54H502.22V116.1H521.31V153.56H530.5V116.1H627.33V50.36L521.28 50.38Z" fill="#005BAC"/>
<path d="M691.8 9.72H661.18V176.54H691.8V9.72Z" fill="#005BAC"/>
<path d="M715.59 21.31V14.87H742V9.72H754.87V14.87H781.27V21.31H754.87V25.17H778.69V52.17H762.69L781.25 66.33V79.24L754.85 59.18V79.24H742V59.18L715.6 79.24V66.37L734.17 52.21H718.17V25.21H742V21.31H715.59ZM731 45.77H742V41.91H731V45.77ZM765.77 45.77V41.91H754.86V45.77H765.77ZM731 31.61V35.47H742V31.61H731ZM765.77 31.61H754.86V35.47H765.81L765.77 31.61Z" fill="#005BAC"/>
<path d="M789.84 22.59V16.16H815V9.72H827.87V16.16H852.98V22.59H789.84ZM793.7 52.21V25.21H849.07V52.21H827.82V67.66C827.82 75.38 824.387 79.24 817.52 79.24H809.15V72.81C813.017 72.81 814.95 71.0933 814.95 67.66V52.21H793.7ZM806.58 45.77H836.19V31.61H806.58V45.77ZM788.58 79.24L797.58 54.78H810.45L801.45 79.24H788.58ZM854.25 79.24H841.34L832.34 54.78H845.2L854.2 79.24H854.25Z" fill="#005BAC"/>
<path d="M1007.43 30.32V23.88H1031.79L1038.33 9.72H1052.49L1046 23.88H1073.14V30.32H1047.39L1074.39 79.24H1059.59L1038.23 40.62L1020.32 79.24H1006.15L1028.79 30.32H1007.43Z" fill="#005BAC"/>
<path d="M1081.68 38V21.31H1144.77V38H1131.89V36.11L1122.89 49.63H1146.06V56.07H1121.6V66.37C1121.6 74.95 1118.17 79.24 1111.3 79.24H1102.3V72.81C1106.59 72.81 1108.73 70.6633 1108.73 66.37V56.07H1080.41V49.63H1108.73L1114.73 40.63H1089.4V38H1081.68ZM1085.54 20L1081.68 9.70001H1093.26L1097.13 20H1085.54ZM1108.71 20L1104.85 9.70001H1116.44L1120.3 20H1108.71ZM1140.9 20H1129.32L1133.18 9.70001H1144.77L1140.9 20ZM1131.9 27.72H1094.56V34.16H1131.9V27.72Z" fill="#005BAC"/>
<path d="M737.7 170.73H717.1V164.29H728.69C733.837 164.29 736.41 162.143 736.41 157.85V129.53H714.52V123.09H760.87V129.53H749.29V157.85C749.29 166.443 745.427 170.737 737.7 170.73ZM718.39 110.22V103.78H757V110.22H718.39ZM761.84 118.22L756.69 112.64L761.84 106.96L766.99 112.64L761.84 118.22ZM772.35 118.22L767.2 112.64L772.35 106.96L777.5 112.64L772.35 118.22Z" fill="#005BAC"/>
<path d="M815.05 170.73H785.44V164.29H805.44C811.02 164.29 813.81 162.143 813.81 157.85V114.08H826.68V157.85C826.68 166.443 822.817 170.737 815.09 170.73H815.05ZM782.87 110.22V103.78H804.75V110.22H782.87ZM782.87 128.22V121.8H804.75V128.24L782.87 128.22ZM819 111.4L813.85 105.82L819 100.13L824.15 105.82L819 111.4ZM829.52 111.4L824.37 105.82L829.52 100.13L834.67 105.82L829.52 111.4Z" fill="#005BAC"/>
<path d="M850.14 170.73V164.29H856.58C861.733 164.29 864.307 161.717 864.3 156.57V130.82H850.14C850.14 138.54 845.847 142.4 837.26 142.4H830.83V136H832.11C835.55 136 837.26 134.28 837.26 130.85V101.2H850.14V107.64H877.14V156.57C877.14 166.01 873.707 170.73 866.84 170.73H850.14ZM864.3 114.08H850.14V124.38H864.3V114.08Z" fill="#005BAC"/>
<path d="M882.33 170.73L887.48 106.35H900.35L895.2 170.73H882.33ZM902.93 170.73V101.2H915.8V164.29H917.09C920.52 164.29 922.24 162.15 922.24 157.85V143.69H935.12V157.85C935.12 166.443 931.257 170.737 923.53 170.73H902.93Z" fill="#005BAC"/>
<path d="M941.34 119.23V108.93L960 101.2L978.67 108.93V119.23L966.44 114.23V119.23H977.38V143.23H955.38V145H977.38V170.75H947.78V165.6H941.34L943.91 119.25H953.57V114.25L941.34 119.25V119.23ZM980 154V107.64H991.59V154H980ZM987.73 170.74V164.3H989C992.43 164.3 994.15 162.59 994.15 159.15V102.49H1007V159.14C1007 166.873 1003.14 170.737 995.42 170.73L987.73 170.74ZM953.83 114.09H966.27L960 111.5L953.78 114.08L953.83 114.09ZM956.51 125.68L956.29 128.25H964.55V125.68H956.51ZM955.97 134.26L955.86 136.84H964.55V134.26H955.97ZM960.69 164.26H964.55V151.42H960.69V164.26Z" fill="#005BAC"/>
<path d="M1033.61 170.73H1020.74V135.64L1014.3 148.84V132.1L1028.46 101.2H1037.46L1033.6 109.14L1033.61 170.73ZM1056.79 170.73H1043.91V129.53L1034.91 147.53V123.09L1045.21 101.2H1058.08L1054.22 108.93H1080V115.37H1056.83V125.67H1078.71V132.1H1056.83V142.4H1078.71V148.84H1056.83V170.73H1056.79Z" fill="#005BAC"/>
<path d="M1087.26 170.73V102.49H1152.92V170.73H1140.05V108.93H1100.13V170.73H1087.26ZM1102.71 119.23V112.79H1137.47V119.23H1102.71ZM1104 157.85V123.09H1136.18V157.85H1104ZM1115.58 151.42H1124.58V129.53H1115.58V151.42Z" fill="#005BAC"/>
<path d="M1189.83 108.93V102.49H1223.31L1215.58 127H1227.17V133.44H1214.29V157.9C1214.29 166.493 1210.86 170.787 1203.99 170.78H1196.27V164.34C1199.7 164.34 1201.42 162.2 1201.42 157.9V133.39H1188.54V127H1202.7L1208.39 109L1189.83 108.93ZM1162.83 170.73V164.29H1167.98C1173.13 164.29 1175.7 161.717 1175.71 156.57V154L1160.26 150.14L1161.26 115.38H1159.01V108.94H1161.37L1161.58 101.21H1173.17L1172.96 108.94H1187.33V150.46L1191.2 151.46V157.89L1187.33 156.89C1187.26 166.123 1183.82 170.737 1177.03 170.73H1162.83ZM1175.71 115.37H1172.81L1171.95 146.59L1175.71 147.59V115.37Z" fill="#005BAC"/>
<path d="M1234.46 142.41V136H1297.55V142.44H1262.79L1252.79 164.32H1280.04L1274.36 146.32H1288.52L1296.24 170.78H1235.73L1248.6 142.46L1234.46 142.41ZM1240.9 130.82V124.38H1291.11V130.82H1240.9ZM1233.17 125.67V115.37L1266 101.2L1298.83 115.37V125.67L1266 111.5L1233.17 125.67Z" fill="#005BAC"/>
<path d="M935.441 37.8594V21.1016H998.605V37.8594H985.715V35.9258L976.691 49.4609H999.895V55.9062H975.402V66.2188C975.402 74.8125 971.965 79.1094 965.09 79.1094H956.066V72.6641C960.363 72.6641 962.512 70.5156 962.512 66.2188V55.9062H934.152V49.4609H962.512L968.527 40.4375H943.176V37.8594H935.441ZM939.309 19.8125L935.441 9.5H947.043L950.91 19.8125H939.309ZM962.512 19.8125L958.645 9.5H970.246L974.113 19.8125H962.512ZM994.738 19.8125H983.137L987.004 9.5H998.605L994.738 19.8125ZM985.715 27.5469H948.332V33.9922H985.715V27.5469Z" fill="#005BAC"/>
<path d="M868.195 79.1094V53.3281L859.816 72.6641V54.6172L868.195 35.2812H859.816V28.8359H868.195V18.8457L859.816 19.8125V13.3672L889.465 9.5V15.9453L881.086 17.0195V28.8359H889.465V35.2812H881.086L889.465 41.7266V50.75L881.086 44.3047V79.1094H868.195ZM911.379 9.5H924.27V48.3867L928.137 48.1719V54.6172L924.27 54.9395V79.1094H911.379V55.9062L889.465 57.1953V50.75L911.379 49.2461V9.5ZM890.754 17.2344V9.5L910.09 18.5234V26.2578L890.754 17.2344ZM890.754 35.2812V27.5469L910.09 36.5703V44.3047L890.754 35.2812Z" fill="#005BAC"/>
</g>
<defs>
<clipPath id="clip0_213_23">
<rect width="1298.84" height="181.66" fill="white"/>
</clipPath>
</defs>
</svg>
